<svg width="1431" height="948" viewBox="0 0 1431 948" fill="none" xmlns="http://www.w3.org/2000/svg">
<g opacity="0.5">
<path d="M1107.61 891.882H1204.98L1194.9 534.92H1117.69L1107.61 891.882Z" fill="#00AFC1"/>
<path d="M1117.69 534.92H1148.13V891.882H1107.61L1117.69 534.92Z" fill="#009E9F"/>
<path d="M1200.95 891.882H1298.32L1288.24 534.92H1211.03L1200.95 891.882Z" fill="#00AFC1"/>
<path d="M1211.03 534.92H1241.47V891.882H1200.95L1211.03 534.92Z" fill="#009E9F"/>
<path d="M1336.83 524.168H1390.76V534.92H1336.83V524.168Z" fill="#008787"/>
<path d="M1191.5 332.764H1214.43V305.676C1214.43 299.404 1209.29 294.304 1202.97 294.304C1196.64 294.304 1191.5 299.404 1191.5 305.676V332.764Z" fill="#009DB7"/>
<path d="M1202.97 294.993C1199.63 294.993 1196.92 292.308 1196.92 288.996C1196.92 285.685 1199.63 283 1202.97 283C1206.3 283 1209.01 285.685 1209.01 288.996C1209.01 292.308 1206.3 294.993 1202.97 294.993Z" fill="#009DB7"/>
<path d="M1016.98 479.781C1026.29 386.043 1106.01 312.845 1202.97 312.845C1299.92 312.845 1379.64 386.043 1388.95 479.781H1016.98Z" fill="#00AFC1"/>
<path d="M1322.37 488.948H1249.6C1249.6 370.466 1202.96 312.776 1202.96 312.776C1202.96 312.776 1322.37 365.779 1322.37 488.948Z" fill="#04A7AF"/>
<path d="M1083.56 488.948H1156.33C1156.33 370.466 1202.97 312.776 1202.97 312.776C1202.97 312.776 1083.56 365.779 1083.56 488.948Z" fill="#04A7AF"/>
<path d="M1202.97 488.948V312.845C1202.97 312.845 1249.6 370.535 1249.6 489.017H1202.97V488.948Z" fill="#00AFC1"/>
<path d="M1202.97 312.845V489.017H1156.33C1156.33 370.535 1202.97 312.845 1202.97 312.845Z" fill="#00AFC1"/>
<path d="M1007.6 479.78H1398.33V488.947H1007.6V479.78Z" fill="#00A1BC"/>
<path d="M1007.6 515.001H1398.33V524.168H1007.6V515.001Z" fill="#00A1BC"/>
<path d="M1012.32 488.948H1393.68V515.001H1012.32V488.948Z" fill="#008391"/>
<path d="M991.055 891.882H1414.88V911.181H991.055V891.882Z" fill="#00A1BC"/>
<path d="M975 911.181H1431V946.884H975V911.181Z" fill="#008391"/>
<path d="M1110.53 524.168H1202.13V534.92H1110.53V524.168Z" fill="#008787"/>
<path d="M1203.8 524.168H1295.4V534.92H1203.8V524.168Z" fill="#008787"/>
<path d="M1296.31 891.882H1393.68L1383.6 534.92H1306.38L1296.31 891.882Z" fill="#00AFC1"/>
<path d="M1015.17 524.168H1106.77V534.92H1015.17V524.168Z" fill="#008787"/>
<path d="M1012.32 488.948H1393.68V493.221H1012.32V488.948Z" fill="#00747A"/>
<path d="M1299.22 524.168H1336.82V534.92H1299.22V524.168Z" fill="#008787"/>
<path d="M1203.87 524.168H1241.47V534.92H1203.87V524.168Z" fill="#008787"/>
<path d="M1110.53 524.168H1148.13V534.92H1110.53V524.168Z" fill="#008787"/>
<path d="M1015.17 524.168H1052.77V534.92H1015.17V524.168Z" fill="#008787"/>
<path d="M1306.38 534.92H1336.82V891.882H1296.31L1306.38 534.92Z" fill="#009E9F"/>
<path d="M1012.25 891.882H1109.62L1099.55 534.92H1022.33L1012.25 891.882Z" fill="#00AFC1"/>
<path d="M1022.33 534.92H1052.77V891.882H1012.25L1022.33 534.92Z" fill="#009E9F"/>
</g>
<g opacity="0.4">
<path d="M16 404.801H560V947.261H16V404.801Z" fill="#007C82"/>
<path d="M0 381H576V404.801H0V381Z" fill="#007C82"/>
<path d="M0 559.506H576V583.307H0V559.506Z" fill="#007C82"/>
<path d="M0 907.594H576V931.394H0V907.594Z" fill="#007C82"/>
<path d="M462.264 559.621H518.715V499.438C518.715 483.945 506.078 471.412 490.455 471.412C474.832 471.412 462.195 483.945 462.195 499.438V559.621H462.264Z" fill="#006060"/>
<path d="M377.552 559.621H434.003V499.438C434.003 483.945 421.366 471.412 405.743 471.412C390.12 471.412 377.483 483.945 377.483 499.438V559.621H377.552Z" fill="#006060"/>
<path d="M292.842 559.621H349.293V499.438C349.293 483.945 336.656 471.412 321.033 471.412C305.41 471.412 292.773 483.945 292.773 499.438V559.621H292.842Z" fill="#006060"/>
<path d="M208.131 559.621H264.582V499.438C264.582 483.945 251.945 471.412 236.322 471.412C220.699 471.412 208.062 483.945 208.062 499.438V559.621H208.131Z" fill="#006060"/>
<path d="M123.349 559.621H179.8V499.438C179.8 483.945 167.163 471.412 151.54 471.412C135.917 471.412 123.28 483.945 123.28 499.438V559.621H123.349Z" fill="#006060"/>
<path d="M38.6388 559.621H95.0898V499.438C95.0898 483.945 82.4526 471.412 66.8296 471.412C51.2066 471.412 38.5693 483.945 38.5693 499.438V559.621H38.6388Z" fill="#006060"/>
<path d="M405.813 893.865H518.715V671.311C518.715 640.393 493.441 615.329 462.264 615.329C431.088 615.329 405.813 640.393 405.813 671.311V893.865V893.865Z" fill="#006060"/>
<path d="M231.028 893.577H344V671.024C344 640.106 318.725 615.042 287.549 615.042C256.372 615.042 231.098 640.106 231.098 671.024V893.577H231.028Z" fill="#006060"/>
<path d="M58.0289 893.577H171V671.024C171 640.106 145.726 615.042 114.549 615.042C83.3728 615.042 58.0984 640.106 58.0984 671.024V893.577H58.0289Z" fill="#006060"/>
</g>
<g opacity="0.6">
<path d="M45.8721 212.845H110.041L131.723 300.247H24.19L45.8721 212.845Z" fill="#0098A0"/>
<path d="M45.7838 175.848H110.04V212.933H45.7838V175.848Z" fill="#00858C"/>
<path d="M45.8713 175.848H110.04L113.375 161.658H42.5356L45.8713 175.848Z" fill="#0098A0"/>
<path d="M113.376 95.4108V161.658H96.4344V92.0157C96.4344 81.9175 88.1829 73.6475 77.9124 73.6475H126.192L113.376 95.4108Z" fill="#00AFC1"/>
<path d="M77.9131 73.6475C67.7304 73.6475 59.3911 81.8305 59.3911 92.0157V161.658H42.4493V95.4108L29.6331 73.6475H77.9131Z" fill="#00AFC1"/>
<path d="M32.7922 149.558H123.12V161.745H32.7922V149.558Z" fill="#00A1BC"/>
<path d="M130.668 73.2118V76.1716H25.3299V73.2118C25.3299 69.7296 25.681 66.2475 26.3833 62.9395H129.702C130.317 66.3345 130.668 69.7296 130.668 73.2118Z" fill="#00A1BC"/>
<path d="M28.4028 63.0266C33.4942 40.5669 53.7718 23.7656 77.9995 23.7656C102.227 23.7656 122.505 40.5669 127.596 63.0266H28.4028Z" fill="#00AFC1"/>
<path d="M70.9779 29.7722H85.0229V6.96426C85.0229 3.13392 81.8628 0 78.0004 0C74.138 0 70.9779 3.13392 70.9779 6.96426V29.7722Z" fill="#00AFC1"/>
<path d="M5.84398 946.965H150.069L129.177 364.318H26.736L5.84398 946.965Z" fill="#0098A0"/>
<path d="M25.859 364.927H130.056L135.411 332.631H20.5044L25.859 364.927Z" fill="#00858C"/>
<path d="M4 320.182H152V334.11H4V320.182Z" fill="#00A1BC"/>
<path d="M13.1295 299.115H142.695V320.182H13.1295V299.115Z" fill="#00AFC1"/>
<path d="M5.84302 946.965L26.6473 364.927L70.9771 364.318L57.6342 946.965H5.84302Z" fill="#008391"/>
</g>
<g opacity="0.4">
<path d="M687.632 904.75H875.396V935.945H687.632V904.75Z" fill="#006E6D"/>
<path d="M650.002 922.733H913V946.761H650.002V922.733Z" fill="#009E9F"/>
<path d="M853.713 638.017H897.053V909.495H853.713V638.017Z" fill="#009E9F"/>
<path d="M884.656 654.674H890.854V892.864H884.656V654.674Z" fill="#006E6D"/>
<path d="M872.283 654.674H878.481V892.864H872.283V654.674Z" fill="#006E6D"/>
<path d="M859.886 654.674H866.085V892.864H859.886V654.674Z" fill="#006E6D"/>
<path d="M849.443 638.017H901.348V647.531H849.443V638.017Z" fill="#009E9F"/>
<path d="M837.791 611.591H913V624.804H837.791V611.591Z" fill="#009E9F"/>
<path d="M849.417 638.017H901.348L913 624.804H837.766L849.417 638.017Z" fill="#009E9F"/>
<path d="M849.443 900.005H901.348V909.52H849.443V900.005Z" fill="#009E9F"/>
<path d="M837.791 922.733H913V935.946H837.791V922.733Z" fill="#009E9F"/>
<path d="M901.348 909.519H849.417L837.766 922.732H913L901.348 909.519Z" fill="#009E9F"/>
<path d="M665.949 638.017H709.29V909.495H665.949V638.017Z" fill="#009E9F"/>
<path d="M696.892 654.674H703.09V892.864H696.892V654.674Z" fill="#006E6D"/>
<path d="M684.519 654.674H690.718V892.864H684.519V654.674Z" fill="#006E6D"/>
<path d="M672.122 654.674H678.321V892.864H672.122V654.674Z" fill="#006E6D"/>
<path d="M661.654 638.017H713.559V647.531H661.654V638.017Z" fill="#009E9F"/>
<path d="M650.001 611.591H725.21V624.804H650.001V611.591Z" fill="#009E9F"/>
<path d="M661.654 638.017H713.559L725.21 624.804H650.002L661.654 638.017Z" fill="#009E9F"/>
<path d="M661.654 900.005H713.559V909.52H661.654V900.005Z" fill="#009E9F"/>
<path d="M650.002 922.733H725.21V935.946H650.002V922.733Z" fill="#009E9F"/>
<path d="M713.559 909.519H661.654L650.002 922.732H725.21L713.559 909.519Z" fill="#009E9F"/>
<path d="M837.791 611.591H913V618.197H837.791V611.591Z" fill="#006E6D"/>
<path d="M650.001 611.591H725.21V618.197H650.001V611.591Z" fill="#006E6D"/>
<path d="M650.002 580.395H913V611.591H650.002V580.395Z" fill="#009E9F"/>
<path d="M781.487 450C854.097 450 912.973 508.387 912.973 580.395H650C650 508.387 708.876 450 781.487 450Z" fill="#009E9F"/>
</g>
</svg>
