<svg width="1431" height="948" viewBox="0 0 1431 948" fill="none" xmlns="http://www.w3.org/2000/svg">
<g opacity="0.5">
<path d="M323.391 891.882H226.019L236.097 534.92H313.313L323.391 891.882Z" fill="#00AFC1"/>
<path d="M313.313 534.92H282.872V891.882H323.391L313.313 534.92Z" fill="#009E9F"/>
<path d="M230.05 891.882H132.679L142.756 534.92H219.973L230.05 891.882Z" fill="#00AFC1"/>
<path d="M219.973 534.92H189.531V891.882H230.051L219.973 534.92Z" fill="#009E9F"/>
<path d="M94.1745 524.168H40.2412V534.92H94.1745V524.168Z" fill="#008787"/>
<path d="M239.502 332.764H216.567V305.676C216.567 299.404 221.71 294.304 228.035 294.304C234.359 294.304 239.502 299.404 239.502 305.676V332.764Z" fill="#009DB7"/>
<path d="M228.035 294.993C231.374 294.993 234.082 292.308 234.082 288.996C234.082 285.685 231.374 283 228.035 283C224.695 283 221.988 285.685 221.988 288.996C221.988 292.308 224.695 294.993 228.035 294.993Z" fill="#009DB7"/>
<path d="M414.021 479.781C404.708 386.043 324.989 312.845 228.035 312.845C131.08 312.845 51.3616 386.043 42.0483 479.781H414.021Z" fill="#00AFC1"/>
<path d="M108.631 488.948H181.399C181.399 370.466 228.035 312.776 228.035 312.776C228.035 312.776 108.631 365.779 108.631 488.948Z" fill="#04A7AF"/>
<path d="M347.438 488.948H274.67C274.67 370.466 228.035 312.776 228.035 312.776C228.035 312.776 347.438 365.779 347.438 488.948Z" fill="#04A7AF"/>
<path d="M228.035 488.948V312.845C228.035 312.845 181.399 370.535 181.399 489.017H228.035V488.948Z" fill="#00AFC1"/>
<path d="M228.035 312.845V489.017H274.67C274.67 370.535 228.035 312.845 228.035 312.845Z" fill="#00AFC1"/>
<path d="M423.404 479.78H32.666V488.947H423.404V479.78Z" fill="#00A1BC"/>
<path d="M423.404 515.001H32.666V524.168H423.404V515.001Z" fill="#00A1BC"/>
<path d="M418.677 488.948H37.3223V515.001H418.677V488.948Z" fill="#008391"/>
<path d="M439.945 891.882H16.1245V911.181H439.945V891.882Z" fill="#00A1BC"/>
<path d="M456 911.181H0V946.884H456V911.181Z" fill="#008391"/>
<path d="M320.472 524.168H228.869V534.92H320.472V524.168Z" fill="#008787"/>
<path d="M227.201 524.168H135.598V534.92H227.201V524.168Z" fill="#008787"/>
<path d="M134.694 891.882H37.3223L47.4 534.92H124.616L134.694 891.882Z" fill="#00AFC1"/>
<path d="M415.828 524.168H324.225V534.92H415.828V524.168Z" fill="#008787"/>
<path d="M418.677 488.948H37.3223V493.221H418.677V488.948Z" fill="#00747A"/>
<path d="M131.776 524.168H94.1753V534.92H131.776V524.168Z" fill="#008787"/>
<path d="M227.132 524.168H189.531V534.92H227.132V524.168Z" fill="#008787"/>
<path d="M320.472 524.168H282.872V534.92H320.472V524.168Z" fill="#008787"/>
<path d="M415.828 524.168H378.228V534.92H415.828V524.168Z" fill="#008787"/>
<path d="M124.617 534.92H94.1753V891.882H134.695L124.617 534.92Z" fill="#009E9F"/>
<path d="M418.748 891.882H321.376L331.454 534.92H408.67L418.748 891.882Z" fill="#00AFC1"/>
<path d="M408.669 534.92H378.228V891.882H418.747L408.669 534.92Z" fill="#009E9F"/>
</g>
<g opacity="0.4">
<path d="M1415 404.801H871V947.261H1415V404.801Z" fill="#007C82"/>
<path d="M1431 381H855V404.801H1431V381Z" fill="#007C82"/>
<path d="M1431 559.506H855V583.307H1431V559.506Z" fill="#007C82"/>
<path d="M1431 907.594H855V931.394H1431V907.594Z" fill="#007C82"/>
<path d="M968.735 559.621H912.284V499.438C912.284 483.945 924.921 471.412 940.544 471.412C956.167 471.412 968.805 483.945 968.805 499.438V559.621H968.735Z" fill="#006060"/>
<path d="M1053.45 559.621H996.996V499.438C996.996 483.945 1009.63 471.412 1025.26 471.412C1040.88 471.412 1053.52 483.945 1053.52 499.438V559.621H1053.45Z" fill="#006060"/>
<path d="M1138.16 559.621H1081.71V499.438C1081.71 483.945 1094.34 471.412 1109.97 471.412C1125.59 471.412 1138.23 483.945 1138.23 499.438V559.621H1138.16Z" fill="#006060"/>
<path d="M1222.87 559.621H1166.42V499.438C1166.42 483.945 1179.06 471.412 1194.68 471.412C1210.3 471.412 1222.94 483.945 1222.94 499.438V559.621H1222.87Z" fill="#006060"/>
<path d="M1307.65 559.621H1251.2V499.438C1251.2 483.945 1263.84 471.412 1279.46 471.412C1295.08 471.412 1307.72 483.945 1307.72 499.438V559.621H1307.65Z" fill="#006060"/>
<path d="M1392.36 559.621H1335.91V499.438C1335.91 483.945 1348.55 471.412 1364.17 471.412C1379.79 471.412 1392.43 483.945 1392.43 499.438V559.621H1392.36Z" fill="#006060"/>
<path d="M1025.19 893.865H912.284V671.311C912.284 640.394 937.559 615.329 968.735 615.329C999.912 615.329 1025.19 640.394 1025.19 671.311V893.865V893.865Z" fill="#006060"/>
<path d="M1199.97 893.577H1087V671.024C1087 640.106 1112.27 615.042 1143.45 615.042C1174.63 615.042 1199.9 640.106 1199.9 671.024V893.577H1199.97Z" fill="#006060"/>
<path d="M1372.97 893.577H1260V671.024C1260 640.106 1285.27 615.042 1316.45 615.042C1347.63 615.042 1372.9 640.106 1372.9 671.024V893.577H1372.97Z" fill="#006060"/>
</g>
<g opacity="0.6">
<path d="M1385.13 212.845H1320.96L1299.28 300.247H1406.81L1385.13 212.845Z" fill="#0098A0"/>
<path d="M1385.22 175.848H1320.96V212.932H1385.22V175.848Z" fill="#00858C"/>
<path d="M1385.13 175.848H1320.96L1317.62 161.658H1388.46L1385.13 175.848Z" fill="#0098A0"/>
<path d="M1317.62 95.4107V161.658H1334.57V92.0156C1334.57 81.9174 1342.82 73.6473 1353.09 73.6473H1304.81L1317.62 95.4107Z" fill="#00AFC1"/>
<path d="M1353.09 73.6473C1363.27 73.6473 1371.61 81.8303 1371.61 92.0156V161.658H1388.55V95.4107L1401.37 73.6473H1353.09Z" fill="#00AFC1"/>
<path d="M1398.21 149.558H1307.88V161.745H1398.21V149.558Z" fill="#00A1BC"/>
<path d="M1300.33 73.2116V76.1714H1405.67V73.2116C1405.67 69.7295 1405.32 66.2474 1404.62 62.9393H1301.3C1300.68 66.3344 1300.33 69.7295 1300.33 73.2116Z" fill="#00A1BC"/>
<path d="M1402.6 63.0266C1397.51 40.5669 1377.23 23.7656 1353 23.7656C1328.77 23.7656 1308.49 40.5669 1303.4 63.0266H1402.6Z" fill="#00AFC1"/>
<path d="M1360.02 29.7722H1345.98V6.96426C1345.98 3.13392 1349.14 0 1353 0C1356.86 0 1360.02 3.13392 1360.02 6.96426V29.7722Z" fill="#00AFC1"/>
<path d="M1425.16 946.965H1280.93L1301.82 364.318H1404.26L1425.16 946.965Z" fill="#0098A0"/>
<path d="M1405.14 364.927H1300.94L1295.59 332.631H1410.5L1405.14 364.927Z" fill="#00858C"/>
<path d="M1427 320.182H1279V334.11H1427V320.182Z" fill="#00A1BC"/>
<path d="M1417.87 299.115H1288.3V320.182H1417.87V299.115Z" fill="#00AFC1"/>
<path d="M1425.16 946.965L1404.35 364.927L1360.02 364.318L1373.37 946.965H1425.16Z" fill="#008391"/>
</g>
<g opacity="0.4">
<path d="M743.369 904.75H555.604V935.945H743.369V904.75Z" fill="#006E6D"/>
<path d="M780.998 922.733H518V946.761H780.998V922.733Z" fill="#009E9F"/>
<path d="M577.287 638.017H533.947V909.495H577.287V638.017Z" fill="#009E9F"/>
<path d="M546.345 654.674H540.146V892.865H546.345V654.674Z" fill="#006E6D"/>
<path d="M558.717 654.674H552.518V892.865H558.717V654.674Z" fill="#006E6D"/>
<path d="M571.114 654.674H564.915V892.865H571.114V654.674Z" fill="#006E6D"/>
<path d="M581.557 638.017H529.651V647.531H581.557V638.017Z" fill="#009E9F"/>
<path d="M593.209 611.591H518V624.804H593.209V611.591Z" fill="#009E9F"/>
<path d="M581.583 638.017H529.652L518 624.804H593.234L581.583 638.017Z" fill="#009E9F"/>
<path d="M581.557 900.005H529.651V909.52H581.557V900.005Z" fill="#009E9F"/>
<path d="M593.209 922.733H518V935.946H593.209V922.733Z" fill="#009E9F"/>
<path d="M529.652 909.519H581.583L593.234 922.732H518L529.652 909.519Z" fill="#009E9F"/>
<path d="M765.051 638.017H721.711V909.495H765.051V638.017Z" fill="#009E9F"/>
<path d="M734.109 654.674H727.91V892.865H734.109V654.674Z" fill="#006E6D"/>
<path d="M746.48 654.674H740.281V892.865H746.48V654.674Z" fill="#006E6D"/>
<path d="M758.878 654.674H752.679V892.865H758.878V654.674Z" fill="#006E6D"/>
<path d="M769.346 638.017H717.441V647.531H769.346V638.017Z" fill="#009E9F"/>
<path d="M780.999 611.591H705.791V624.804H780.999V611.591Z" fill="#009E9F"/>
<path d="M769.347 638.017H717.442L705.79 624.804H780.999L769.347 638.017Z" fill="#009E9F"/>
<path d="M769.346 900.005H717.441V909.52H769.346V900.005Z" fill="#009E9F"/>
<path d="M780.998 922.733H705.79V935.946H780.998V922.733Z" fill="#009E9F"/>
<path d="M717.441 909.519H769.346L780.998 922.732H705.79L717.441 909.519Z" fill="#009E9F"/>
<path d="M593.209 611.591H518V618.197H593.209V611.591Z" fill="#006E6D"/>
<path d="M780.999 611.591H705.791V618.197H780.999V611.591Z" fill="#006E6D"/>
<path d="M780.998 580.395H518V611.591H780.998V580.395Z" fill="#009E9F"/>
<path d="M649.514 450C576.903 450 518.027 508.387 518.027 580.395H781C781 508.387 722.125 450 649.514 450Z" fill="#009E9F"/>
</g>
</svg>
