<svg width="1431" height="947" viewBox="0 0 1431 947" fill="none" xmlns="http://www.w3.org/2000/svg">
<g opacity="0.4">
<path d="M430 198H60V947H430V198Z" fill="#007C82"/>
<path d="M446 381H44V405H446V381Z" fill="#007C82"/>
<path d="M446 198H44V222H446V198Z" fill="#007C82"/>
<path d="M446 560H44V583H446V560Z" fill="#007C82"/>
<path d="M446 908H44V931H446V908Z" fill="#007C82"/>
<path d="M153.158 559.621H96.707V499.438C96.707 483.945 109.344 471.412 124.967 471.412C140.59 471.412 153.227 483.945 153.227 499.438V559.621H153.158Z" fill="#006060"/>
<path d="M237.869 559.621H181.418V499.438C181.418 483.945 194.055 471.412 209.678 471.412C225.301 471.412 237.938 483.945 237.938 499.438V559.621H237.869Z" fill="#006060"/>
<path d="M322.651 559.621H266.2V499.438C266.2 483.945 278.837 471.412 294.46 471.412C310.083 471.412 322.72 483.945 322.72 499.438V559.621H322.651Z" fill="#006060"/>
<path d="M407.361 559.621H350.91V499.438C350.91 483.945 363.547 471.412 379.17 471.412C394.793 471.412 407.431 483.945 407.431 499.438V559.621H407.361Z" fill="#006060"/>
<path d="M152.727 439.209H96.2764V379.026C96.2764 363.532 108.914 351 124.537 351C140.16 351 152.797 363.532 152.797 379.026V439.209H152.727Z" fill="#006060"/>
<path d="M237.438 439.209H180.987V379.026C180.987 363.532 193.625 351 209.248 351C224.871 351 237.508 363.532 237.508 379.026V439.209H237.438Z" fill="#006060"/>
<path d="M322.22 439.209H265.769V379.026C265.769 363.532 278.406 351 294.029 351C309.652 351 322.289 363.532 322.289 379.026V439.209H322.22Z" fill="#006060"/>
<path d="M406.93 439.209H350.479V379.026C350.479 363.532 363.117 351 378.74 351C394.363 351 407 363.532 407 379.026V439.209H406.93Z" fill="#006060"/>
<path d="M152.727 319.209H96.2764V259.026C96.2764 243.532 108.914 231 124.537 231C140.16 231 152.797 243.532 152.797 259.026V319.209H152.727Z" fill="#006060"/>
<path d="M237.438 319.209H180.987V259.026C180.987 243.532 193.625 231 209.248 231C224.871 231 237.508 243.532 237.508 259.026V319.209H237.438Z" fill="#006060"/>
<path d="M322.22 319.209H265.769V259.026C265.769 243.532 278.406 231 294.029 231C309.652 231 322.289 243.532 322.289 259.026V319.209H322.22Z" fill="#006060"/>
<path d="M406.93 319.209H350.479V259.026C350.479 243.532 363.117 231 378.74 231C394.363 231 407 243.532 407 259.026V319.209H406.93Z" fill="#006060"/>
<path d="M214.972 893.577H102V671.024C102 640.106 127.275 615.042 158.451 615.042C189.628 615.042 214.902 640.106 214.902 671.024V893.577H214.972Z" fill="#006060"/>
<path d="M387.971 893.577H275V671.024C275 640.106 300.274 615.042 331.451 615.042C362.627 615.042 387.902 640.106 387.902 671.024V893.577H387.971Z" fill="#006060"/>
</g>
<g opacity="0.4">
<path d="M1061.54 317H750.451V946.757H1061.54V317Z" fill="#007C82"/>
<path d="M1075 470.864H737V491.043H1075V470.864Z" fill="#007C82"/>
<path d="M1075 317H737V337.179H1075V317Z" fill="#007C82"/>
<path d="M1075 621.369H737V640.707H1075V621.369Z" fill="#007C82"/>
<path d="M1075 913.967H737V933.305H1075V913.967Z" fill="#007C82"/>
<path d="M828.777 621.048H781.313V570.446C781.313 557.42 791.939 546.882 805.075 546.882C818.21 546.882 828.836 557.42 828.836 570.446V621.048H828.777Z" fill="#006060"/>
<path d="M900.007 621.048H852.543V570.446C852.543 557.42 863.168 546.882 876.304 546.882C889.44 546.882 900.065 557.42 900.065 570.446V621.048H900.007Z" fill="#006060"/>
<path d="M971.288 621.048H923.825V570.446C923.825 557.42 934.45 546.882 947.586 546.882C960.722 546.882 971.347 557.42 971.347 570.446V621.048H971.288Z" fill="#006060"/>
<path d="M1042.51 621.048H995.044V570.446C995.044 557.42 1005.67 546.882 1018.81 546.882C1031.94 546.882 1042.57 557.42 1042.57 570.446V621.048H1042.51Z" fill="#006060"/>
<path d="M828.42 519.806H780.957V469.205C780.957 456.178 791.582 445.641 804.718 445.641C817.853 445.641 828.479 456.178 828.479 469.205V519.806H828.42Z" fill="#006060"/>
<path d="M899.639 519.806H852.175V469.205C852.175 456.178 862.801 445.641 875.936 445.641C889.072 445.641 899.697 456.178 899.697 469.205V519.806H899.639Z" fill="#006060"/>
<path d="M970.923 519.806H923.459V469.205C923.459 456.178 934.085 445.641 947.221 445.641C960.356 445.641 970.982 456.178 970.982 469.205V519.806H970.923Z" fill="#006060"/>
<path d="M1042.15 519.806H994.691V469.205C994.691 456.178 1005.32 445.641 1018.45 445.641C1031.59 445.641 1042.21 456.178 1042.21 469.205V519.806H1042.15Z" fill="#006060"/>
<path d="M828.42 418.913H780.957V368.312C780.957 355.285 791.582 344.748 804.718 344.748C817.853 344.748 828.479 355.285 828.479 368.312V418.913H828.42Z" fill="#006060"/>
<path d="M899.639 418.913H852.175V368.312C852.175 355.285 862.801 344.748 875.936 344.748C889.072 344.748 899.697 355.285 899.697 368.312V418.913H899.639Z" fill="#006060"/>
<path d="M970.923 418.913H923.459V368.312C923.459 355.285 934.085 344.748 947.221 344.748C960.356 344.748 970.982 355.285 970.982 368.312V418.913H970.923Z" fill="#006060"/>
<path d="M1042.15 418.913H994.691V368.312C994.691 355.285 1005.32 344.748 1018.45 344.748C1031.59 344.748 1042.21 355.285 1042.21 368.312V418.913H1042.15Z" fill="#006060"/>
<path d="M880.755 901.84H785.769V714.718C785.769 688.723 807.019 667.648 833.232 667.648C859.446 667.648 880.696 688.723 880.696 714.718V901.84H880.755Z" fill="#006060"/>
<path d="M1026.21 901.84H931.221V714.718C931.221 688.723 952.471 667.648 978.685 667.648C1004.9 667.648 1026.15 688.723 1026.15 714.718V901.84H1026.21Z" fill="#006060"/>
</g>
<g opacity="0.4">
<path d="M1374.28 549.438H975.721V946.865H1374.28V549.438Z" fill="#007C82"/>
<path d="M1386 532H964V549.437H1386V532Z" fill="#007C82"/>
<path d="M1386 662.781H964V680.219H1386V662.781Z" fill="#007C82"/>
<path d="M1386 917.802H964V935.24H1386V917.802Z" fill="#007C82"/>
<path d="M1047.33 662.864H1005.97V618.772C1005.97 607.42 1015.23 598.239 1026.67 598.239C1038.12 598.239 1047.38 607.42 1047.38 618.772V662.864H1047.33Z" fill="#006060"/>
<path d="M1109.39 662.864H1068.03V618.772C1068.03 607.42 1077.29 598.239 1088.74 598.239C1100.18 598.239 1109.44 607.42 1109.44 618.772V662.864H1109.39Z" fill="#006060"/>
<path d="M1171.45 662.864H1130.1V618.772C1130.1 607.42 1139.35 598.239 1150.8 598.239C1162.25 598.239 1171.5 607.42 1171.5 618.772V662.864H1171.45Z" fill="#006060"/>
<path d="M1233.52 662.864H1192.16V618.772C1192.16 607.42 1201.42 598.239 1212.86 598.239C1224.31 598.239 1233.57 607.42 1233.57 618.772V662.864H1233.52Z" fill="#006060"/>
<path d="M1295.63 662.864H1254.27V618.772C1254.27 607.42 1263.53 598.239 1274.98 598.239C1286.42 598.239 1295.68 607.42 1295.68 618.772V662.864H1295.63Z" fill="#006060"/>
<path d="M1357.69 662.864H1316.33V618.772C1316.33 607.42 1325.59 598.239 1337.04 598.239C1348.48 598.239 1357.74 607.42 1357.74 618.772V662.864H1357.69Z" fill="#006060"/>
<path d="M1088.69 907.745H1005.97V744.694C1005.97 722.042 1024.49 703.679 1047.33 703.679C1070.17 703.679 1088.69 722.042 1088.69 744.694V907.745V907.745Z" fill="#006060"/>
<path d="M1216.74 907.534H1133.97V744.483C1133.97 721.831 1152.49 703.468 1175.33 703.468C1198.17 703.468 1216.69 721.831 1216.69 744.483V907.534H1216.74Z" fill="#006060"/>
<path d="M1343.49 907.534H1260.72V744.483C1260.72 721.831 1279.24 703.468 1302.08 703.468C1324.92 703.468 1343.43 721.831 1343.43 744.483V907.534H1343.49Z" fill="#006060"/>
</g>
<g opacity="0.4">
<path d="M793.116 543.686H388.895V946.764H793.116V543.686Z" fill="#007C82"/>
<path d="M805 526H377V543.685H805V526Z" fill="#007C82"/>
<path d="M805 658.641H377V676.326H805V658.641Z" fill="#007C82"/>
<path d="M805 917.288H377V934.973H805V917.288Z" fill="#007C82"/>
<path d="M461.508 658.724H419.562V614.005C419.562 602.492 428.952 593.18 440.56 593.18C452.169 593.18 461.559 602.492 461.559 614.005V658.724H461.508Z" fill="#006060"/>
<path d="M524.456 658.724H482.509V614.005C482.509 602.492 491.899 593.18 503.508 593.18C515.117 593.18 524.507 602.492 524.507 614.005V658.724H524.456Z" fill="#006060"/>
<path d="M587.406 658.724H545.459V614.005C545.459 602.492 554.85 593.18 566.458 593.18C578.067 593.18 587.457 602.492 587.457 614.005V658.724H587.406Z" fill="#006060"/>
<path d="M650.348 658.724H608.402V614.005C608.402 602.492 617.792 593.18 629.401 593.18C641.01 593.18 650.4 602.492 650.4 614.005V658.724H650.348Z" fill="#006060"/>
<path d="M713.344 658.724H671.397V614.005C671.397 602.492 680.788 593.18 692.396 593.18C704.005 593.18 713.395 602.492 713.395 614.005V658.724H713.344Z" fill="#006060"/>
<path d="M776.287 658.724H734.341V614.005C734.341 602.492 743.731 593.18 755.34 593.18C766.948 593.18 776.339 602.492 776.339 614.005V658.724H776.287Z" fill="#006060"/>
<path d="M503.454 907.087H419.562V741.718C419.562 718.744 438.342 700.12 461.508 700.12C484.674 700.12 503.454 718.744 503.454 741.718V907.087V907.087Z" fill="#006060"/>
<path d="M633.331 906.873H549.387V741.504C549.387 718.53 568.167 699.906 591.333 699.906C614.499 699.906 633.279 718.53 633.279 741.504V906.873H633.331Z" fill="#006060"/>
<path d="M761.881 906.873H677.937V741.504C677.937 718.53 696.717 699.906 719.883 699.906C743.049 699.906 761.83 718.53 761.83 741.504V906.873H761.881Z" fill="#006060"/>
</g>
<g opacity="0.6">
<path d="M764.697 449.815H721.34L706.689 508.87H779.347L764.697 449.815Z" fill="#0098A0"/>
<path d="M764.769 424.816H721.353V449.873H764.769V424.816Z" fill="#00858C"/>
<path d="M764.703 424.816H721.346L719.092 415.229H766.957L764.703 424.816Z" fill="#0098A0"/>
<path d="M719.096 370.467V415.229H730.543V368.173C730.543 361.35 736.118 355.762 743.058 355.762H710.436L719.096 370.467Z" fill="#00AFC1"/>
<path d="M743.058 355.762C749.938 355.762 755.573 361.291 755.573 368.173V415.229H767.02V370.467L775.68 355.762H743.058Z" fill="#00AFC1"/>
<path d="M773.547 407.052H712.515V415.287H773.547V407.052Z" fill="#00A1BC"/>
<path d="M707.413 355.468V357.468H778.587V355.468C778.587 353.115 778.35 350.762 777.875 348.527H708.065C707.65 350.821 707.413 353.115 707.413 355.468Z" fill="#00A1BC"/>
<path d="M776.512 348.586C773.072 333.41 759.371 322.058 743.001 322.058C726.631 322.058 712.93 333.41 709.49 348.586H776.512Z" fill="#00AFC1"/>
<path d="M747.747 326.116H738.257V310.706C738.257 308.118 740.392 306 743.002 306C745.612 306 747.747 308.118 747.747 310.706V326.116Z" fill="#00AFC1"/>
<path d="M791.754 945.842H694.305L708.421 552.161H777.638L791.754 945.842Z" fill="#0098A0"/>
<path d="M778.234 552.573H707.831L704.213 530.751H781.852L778.234 552.573Z" fill="#00858C"/>
<path d="M793 522.339H693V531.75H793V522.339Z" fill="#00A1BC"/>
<path d="M786.831 508.104H699.286V522.339H786.831V508.104Z" fill="#00AFC1"/>
<path d="M791.753 945.842L777.696 552.573L747.743 552.161L756.759 945.842H791.753Z" fill="#008391"/>
</g>
</svg>
