<svg width="1436" height="949" viewBox="0 0 1436 949" fill="none" xmlns="http://www.w3.org/2000/svg">
<g opacity="0.3">
<path d="M458.87 905.536H271.106V936.732H458.87V905.536Z" fill="#006E6D"/>
<path d="M496.5 923.52H233.501V947.548H496.5V923.52Z" fill="#009E9F"/>
<path d="M292.789 638.804H249.449V910.282H292.789V638.804Z" fill="#009E9F"/>
<path d="M261.846 655.461H255.647V893.652H261.846V655.461Z" fill="#006E6D"/>
<path d="M274.218 655.461H268.02V893.652H274.218V655.461Z" fill="#006E6D"/>
<path d="M286.616 655.461H280.417V893.652H286.616V655.461Z" fill="#006E6D"/>
<path d="M297.058 638.804H245.153V648.318H297.058V638.804Z" fill="#009E9F"/>
<path d="M308.71 612.378H233.501V625.591H308.71V612.378Z" fill="#009E9F"/>
<path d="M297.084 638.804H245.153L233.501 625.591H308.736L297.084 638.804Z" fill="#009E9F"/>
<path d="M297.058 900.792H245.153V910.307H297.058V900.792Z" fill="#009E9F"/>
<path d="M308.71 923.52H233.501V936.733H308.71V923.52Z" fill="#009E9F"/>
<path d="M245.153 910.306H297.084L308.736 923.519H233.501L245.153 910.306Z" fill="#009E9F"/>
<path d="M480.552 638.804H437.212V910.282H480.552V638.804Z" fill="#009E9F"/>
<path d="M449.61 655.461H443.412V893.652H449.61V655.461Z" fill="#006E6D"/>
<path d="M461.982 655.461H455.783V893.652H461.982V655.461Z" fill="#006E6D"/>
<path d="M474.379 655.461H468.18V893.652H474.379V655.461Z" fill="#006E6D"/>
<path d="M484.848 638.804H432.942V648.318H484.848V638.804Z" fill="#009E9F"/>
<path d="M496.501 612.378H421.292V625.591H496.501V612.378Z" fill="#009E9F"/>
<path d="M484.848 638.804H432.943L421.292 625.591H496.5L484.848 638.804Z" fill="#009E9F"/>
<path d="M484.848 900.792H432.942V910.307H484.848V900.792Z" fill="#009E9F"/>
<path d="M496.5 923.52H421.291V936.733H496.5V923.52Z" fill="#009E9F"/>
<path d="M432.943 910.306H484.848L496.5 923.519H421.291L432.943 910.306Z" fill="#009E9F"/>
<path d="M308.71 612.378H233.501V618.984H308.71V612.378Z" fill="#006E6D"/>
<path d="M496.501 612.378H421.292V618.984H496.501V612.378Z" fill="#006E6D"/>
<path d="M496.5 581.182H233.501V612.378H496.5V581.182Z" fill="#009E9F"/>
<path d="M365.015 450.787C292.404 450.787 233.529 509.174 233.529 581.182H496.502C496.502 509.174 437.626 450.787 365.015 450.787Z" fill="#009E9F"/>
</g>
<g opacity="0.3">
<path d="M1158.87 905.536H971.106V936.732H1158.87V905.536Z" fill="#006E6D"/>
<path d="M1196.5 923.52H933.502V947.548H1196.5V923.52Z" fill="#009E9F"/>
<path d="M992.789 638.804H949.449V910.282H992.789V638.804Z" fill="#009E9F"/>
<path d="M961.847 655.461H955.648V893.652H961.847V655.461Z" fill="#006E6D"/>
<path d="M974.219 655.461H968.02V893.652H974.219V655.461Z" fill="#006E6D"/>
<path d="M986.616 655.461H980.417V893.652H986.616V655.461Z" fill="#006E6D"/>
<path d="M997.059 638.804H945.153V648.318H997.059V638.804Z" fill="#009E9F"/>
<path d="M1008.71 612.378H933.502V625.591H1008.71V612.378Z" fill="#009E9F"/>
<path d="M997.085 638.804H945.154L933.502 625.591H1008.74L997.085 638.804Z" fill="#009E9F"/>
<path d="M997.059 900.792H945.153V910.307H997.059V900.792Z" fill="#009E9F"/>
<path d="M1008.71 923.52H933.502V936.733H1008.71V923.52Z" fill="#009E9F"/>
<path d="M945.154 910.306H997.085L1008.74 923.519H933.502L945.154 910.306Z" fill="#009E9F"/>
<path d="M1180.55 638.804H1137.21V910.282H1180.55V638.804Z" fill="#009E9F"/>
<path d="M1149.61 655.461H1143.41V893.652H1149.61V655.461Z" fill="#006E6D"/>
<path d="M1161.98 655.461H1155.78V893.652H1161.98V655.461Z" fill="#006E6D"/>
<path d="M1174.38 655.461H1168.18V893.652H1174.38V655.461Z" fill="#006E6D"/>
<path d="M1184.85 638.804H1132.94V648.318H1184.85V638.804Z" fill="#009E9F"/>
<path d="M1196.5 612.378H1121.29V625.591H1196.5V612.378Z" fill="#009E9F"/>
<path d="M1184.85 638.804H1132.94L1121.29 625.591H1196.5L1184.85 638.804Z" fill="#009E9F"/>
<path d="M1184.85 900.792H1132.94V910.307H1184.85V900.792Z" fill="#009E9F"/>
<path d="M1196.5 923.52H1121.29V936.733H1196.5V923.52Z" fill="#009E9F"/>
<path d="M1132.94 910.306H1184.85L1196.5 923.519H1121.29L1132.94 910.306Z" fill="#009E9F"/>
<path d="M1008.71 612.378H933.502V618.984H1008.71V612.378Z" fill="#006E6D"/>
<path d="M1196.5 612.378H1121.29V618.984H1196.5V612.378Z" fill="#006E6D"/>
<path d="M1196.5 581.182H933.502V612.378H1196.5V581.182Z" fill="#009E9F"/>
<path d="M1065.02 450.787C992.405 450.787 933.529 509.174 933.529 581.182H1196.5C1196.5 509.174 1137.63 450.787 1065.02 450.787Z" fill="#009E9F"/>
</g>
<g opacity="0.5">
<path d="M1011.45 882.831H419.515V930.355H1011.45V882.831Z" fill="#008787"/>
<path d="M1068.27 910.205H362.732V946.801H1068.27V910.205Z" fill="#009E9F"/>
<path d="M1068.23 486.441L715.482 352L362.732 486.441V533.966H1068.23V486.441Z" fill="#009E9F"/>
<path d="M452.265 574.228H386.805V890.091H452.265V574.228Z" fill="#009E9F"/>
<path d="M405.501 599.571H396.134V864.714H405.501V599.571Z" fill="#008787"/>
<path d="M424.2 599.571H414.833V864.714H424.2V599.571Z" fill="#008787"/>
<path d="M442.93 599.571H433.563V864.714H442.93V599.571Z" fill="#008787"/>
<path d="M458.727 574.228H380.306V588.714H458.727V574.228Z" fill="#009E9F"/>
<path d="M476.334 533.965H362.732V554.079H476.334V533.965Z" fill="#009E9F"/>
<path d="M458.726 574.23H380.305L362.732 554.08H476.334L458.726 574.23Z" fill="#009E9F"/>
<path d="M458.727 875.569H380.306V890.055H458.727V875.569Z" fill="#009E9F"/>
<path d="M476.334 910.204H362.732V930.318H476.334V910.204Z" fill="#009E9F"/>
<path d="M380.305 890.092H458.726L476.334 910.205H362.732L380.305 890.092Z" fill="#009E9F"/>
<path d="M649.551 574.228H584.091V890.091H649.551V574.228Z" fill="#009E9F"/>
<path d="M602.824 599.571H593.457V864.714H602.824V599.571Z" fill="#008787"/>
<path d="M621.521 599.571H612.154V864.714H621.521V599.571Z" fill="#008787"/>
<path d="M640.22 599.571H630.854V864.714H640.22V599.571Z" fill="#008787"/>
<path d="M656.047 574.228H577.625V588.714H656.047V574.228Z" fill="#009E9F"/>
<path d="M673.619 533.965H560.017V554.079H673.619V533.965Z" fill="#009E9F"/>
<path d="M656.047 574.23H577.626L560.017 554.08H673.619L656.047 574.23Z" fill="#009E9F"/>
<path d="M656.047 875.569H577.625V890.055H656.047V875.569Z" fill="#009E9F"/>
<path d="M673.619 910.204H560.017V930.318H673.619V910.204Z" fill="#009E9F"/>
<path d="M577.626 890.092H656.047L673.619 910.206H560.017L577.626 890.092Z" fill="#009E9F"/>
<path d="M846.873 574.229H781.414V890.091H846.873V574.229Z" fill="#009E9F"/>
<path d="M800.111 599.571H790.744V864.714H800.111V599.571Z" fill="#008787"/>
<path d="M818.808 599.571H809.441V864.714H818.808V599.571Z" fill="#008787"/>
<path d="M837.543 599.571H828.176V864.714H837.543V599.571Z" fill="#008787"/>
<path d="M853.334 574.229H774.913V588.715H853.334V574.229Z" fill="#009E9F"/>
<path d="M870.942 533.965H757.34V554.079H870.942V533.965Z" fill="#009E9F"/>
<path d="M853.333 574.23H774.912L757.34 554.08H870.942L853.333 574.23Z" fill="#009E9F"/>
<path d="M853.334 875.569H774.913V890.055H853.334V875.569Z" fill="#009E9F"/>
<path d="M870.942 910.204H757.34V930.318H870.942V910.204Z" fill="#009E9F"/>
<path d="M774.912 890.092H853.333L870.942 910.206H757.34L774.912 890.092Z" fill="#009E9F"/>
<path d="M1044.16 574.229H978.7V890.091H1044.16V574.229Z" fill="#009E9F"/>
<path d="M997.435 599.571H988.068V864.713H997.435V599.571Z" fill="#008787"/>
<path d="M1016.13 599.571H1006.76V864.713H1016.13V599.571Z" fill="#008787"/>
<path d="M1034.83 599.571H1025.46V864.713H1034.83V599.571Z" fill="#008787"/>
<path d="M1050.66 574.229H972.236V588.715H1050.66V574.229Z" fill="#009E9F"/>
<path d="M1068.23 533.965H954.627V554.079H1068.23V533.965Z" fill="#009E9F"/>
<path d="M1050.66 574.23H972.236L954.627 554.08H1068.23L1050.66 574.23Z" fill="#009E9F"/>
<path d="M1050.66 875.569H972.236V890.055H1050.66V875.569Z" fill="#009E9F"/>
<path d="M1068.23 910.204H954.627V930.318H1068.23V910.204Z" fill="#009E9F"/>
<path d="M972.236 890.092H1050.66L1068.23 910.206H954.627L972.236 890.092Z" fill="#009E9F"/>
<path d="M956.118 486.441L715.482 394.732L474.845 486.441H956.118Z" fill="#008787"/>
<path d="M476.334 533.965H362.732V544.022H476.334V533.965Z" fill="#008787"/>
<path d="M673.619 533.965H560.017V544.022H673.619V533.965Z" fill="#008787"/>
<path d="M870.942 533.965H757.341V544.022H870.942V533.965Z" fill="#008787"/>
<path d="M1068.23 533.965H954.628V544.022H1068.23V533.965Z" fill="#008787"/>
</g>
<g opacity="0.2">
<path d="M202.827 914.257H141.756L148.077 690.373H196.507L202.827 914.257Z" fill="#00AFC1"/>
<path d="M196.504 690.373H177.412V914.257H202.825L196.504 690.373Z" fill="#009E9F"/>
<path d="M144.288 914.257H83.2173L89.538 690.373H137.967L144.288 914.257Z" fill="#00AFC1"/>
<path d="M137.964 690.373H118.871V914.257H144.285L137.964 690.373Z" fill="#009E9F"/>
<path d="M59.0678 683.628H25.2412V690.371H59.0678V683.628Z" fill="#008787"/>
<path d="M150.216 563.583H135.831V546.594C135.831 542.66 139.057 539.461 143.024 539.461C146.99 539.461 150.216 542.66 150.216 546.594V563.583Z" fill="#009DB7"/>
<path d="M143.022 539.892C145.116 539.892 146.814 538.208 146.814 536.131C146.814 534.054 145.116 532.37 143.022 532.37C140.927 532.37 139.229 534.054 139.229 536.131C139.229 538.208 140.927 539.892 143.022 539.892Z" fill="#009DB7"/>
<path d="M259.672 655.789C253.831 596.998 203.832 551.088 143.022 551.088C82.213 551.088 32.2142 596.998 26.373 655.789H259.672Z" fill="#00AFC1"/>
<path d="M68.1348 661.537H113.774C113.774 587.227 143.024 551.044 143.024 551.044C143.024 551.044 68.1348 584.287 68.1348 661.537Z" fill="#04A7AF"/>
<path d="M217.91 661.537H172.27C172.27 587.227 143.021 551.044 143.021 551.044C143.021 551.044 217.91 584.287 217.91 661.537Z" fill="#04A7AF"/>
<path d="M143.023 661.539V551.088C143.023 551.088 113.774 587.271 113.774 661.582H143.023V661.539Z" fill="#00AFC1"/>
<path d="M143.021 551.088V661.582H172.27C172.27 587.271 143.021 551.088 143.021 551.088Z" fill="#00AFC1"/>
<path d="M265.558 655.79H20.4897V661.54H265.558V655.79Z" fill="#00A1BC"/>
<path d="M265.558 677.879H20.4897V683.628H265.558V677.879Z" fill="#00A1BC"/>
<path d="M262.594 661.538H23.4106V677.879H262.594V661.538Z" fill="#008391"/>
<path d="M275.928 914.255H10.1104V926.359H275.928V914.255Z" fill="#00A1BC"/>
<path d="M286 926.361H0V948.754H286V926.361Z" fill="#008391"/>
<path d="M200.998 683.628H143.545V690.371H200.998V683.628Z" fill="#008787"/>
<path d="M142.499 683.628H85.0459V690.371H142.499V683.628Z" fill="#008787"/>
<path d="M84.4815 914.257H23.4106L29.7313 690.373H78.1608L84.4815 914.257Z" fill="#00AFC1"/>
<path d="M260.803 683.628H203.351V690.371H260.803V683.628Z" fill="#008787"/>
<path d="M262.594 661.538H23.4106V664.219H262.594V661.538Z" fill="#00747A"/>
<path d="M82.6471 683.628H59.0645V690.371H82.6471V683.628Z" fill="#008787"/>
<path d="M142.454 683.628H118.871V690.371H142.454V683.628Z" fill="#008787"/>
<path d="M200.994 683.628H177.412V690.371H200.994V683.628Z" fill="#008787"/>
<path d="M260.807 683.628H237.224V690.371H260.807V683.628Z" fill="#008787"/>
<path d="M78.1573 690.373H59.0645V914.257H84.4779L78.1573 690.373Z" fill="#009E9F"/>
<path d="M262.633 914.257H201.562L207.883 690.373H256.312L262.633 914.257Z" fill="#00AFC1"/>
<path d="M256.317 690.373H237.224V914.257H262.638L256.317 690.373Z" fill="#009E9F"/>
</g>
<g opacity="0.2">
<path d="M1352.83 914.257H1291.76L1298.08 690.373H1346.51L1352.83 914.257Z" fill="#00AFC1"/>
<path d="M1346.5 690.373H1327.41V914.257H1352.83L1346.5 690.373Z" fill="#009E9F"/>
<path d="M1294.29 914.257H1233.22L1239.54 690.373H1287.97L1294.29 914.257Z" fill="#00AFC1"/>
<path d="M1287.96 690.373H1268.87V914.257H1294.28L1287.96 690.373Z" fill="#009E9F"/>
<path d="M1209.07 683.628H1175.24V690.371H1209.07V683.628Z" fill="#008787"/>
<path d="M1300.22 563.583H1285.83V546.594C1285.83 542.66 1289.06 539.461 1293.02 539.461C1296.99 539.461 1300.22 542.66 1300.22 546.594V563.583Z" fill="#009DB7"/>
<path d="M1293.02 539.892C1295.12 539.892 1296.81 538.208 1296.81 536.131C1296.81 534.054 1295.12 532.37 1293.02 532.37C1290.93 532.37 1289.23 534.054 1289.23 536.131C1289.23 538.208 1290.93 539.892 1293.02 539.892Z" fill="#009DB7"/>
<path d="M1409.67 655.789C1403.83 596.998 1353.83 551.088 1293.02 551.088C1232.21 551.088 1182.21 596.998 1176.37 655.789H1409.67Z" fill="#00AFC1"/>
<path d="M1218.13 661.537H1263.77C1263.77 587.227 1293.02 551.044 1293.02 551.044C1293.02 551.044 1218.13 584.287 1218.13 661.537Z" fill="#04A7AF"/>
<path d="M1367.91 661.537H1322.27C1322.27 587.227 1293.02 551.044 1293.02 551.044C1293.02 551.044 1367.91 584.287 1367.91 661.537Z" fill="#04A7AF"/>
<path d="M1293.02 661.539V551.088C1293.02 551.088 1263.77 587.271 1263.77 661.582H1293.02V661.539Z" fill="#00AFC1"/>
<path d="M1293.02 551.088V661.582H1322.27C1322.27 587.271 1293.02 551.088 1293.02 551.088Z" fill="#00AFC1"/>
<path d="M1415.56 655.79H1170.49V661.54H1415.56V655.79Z" fill="#00A1BC"/>
<path d="M1415.56 677.879H1170.49V683.628H1415.56V677.879Z" fill="#00A1BC"/>
<path d="M1412.59 661.538H1173.41V677.879H1412.59V661.538Z" fill="#008391"/>
<path d="M1425.93 914.255H1160.11V926.359H1425.93V914.255Z" fill="#00A1BC"/>
<path d="M1436 926.361H1150V948.754H1436V926.361Z" fill="#008391"/>
<path d="M1351 683.628H1293.54V690.371H1351V683.628Z" fill="#008787"/>
<path d="M1292.5 683.628H1235.05V690.371H1292.5V683.628Z" fill="#008787"/>
<path d="M1234.48 914.257H1173.41L1179.73 690.373H1228.16L1234.48 914.257Z" fill="#00AFC1"/>
<path d="M1410.8 683.628H1353.35V690.371H1410.8V683.628Z" fill="#008787"/>
<path d="M1412.59 661.538H1173.41V664.219H1412.59V661.538Z" fill="#00747A"/>
<path d="M1232.65 683.628H1209.06V690.371H1232.65V683.628Z" fill="#008787"/>
<path d="M1292.45 683.628H1268.87V690.371H1292.45V683.628Z" fill="#008787"/>
<path d="M1350.99 683.628H1327.41V690.371H1350.99V683.628Z" fill="#008787"/>
<path d="M1410.81 683.628H1387.22V690.371H1410.81V683.628Z" fill="#008787"/>
<path d="M1228.16 690.373H1209.06V914.257H1234.48L1228.16 690.373Z" fill="#009E9F"/>
<path d="M1412.63 914.257H1351.56L1357.88 690.373H1406.31L1412.63 914.257Z" fill="#00AFC1"/>
<path d="M1406.32 690.373H1387.22V914.257H1412.64L1406.32 690.373Z" fill="#009E9F"/>
</g>
</svg>
