<svg width="1431" height="947" viewBox="0 0 1431 947" fill="none" xmlns="http://www.w3.org/2000/svg">
<g opacity="0.4">
<path d="M1001 198H1371V947H1001V198Z" fill="#007C82"/>
<path d="M985 381H1387V405H985V381Z" fill="#007C82"/>
<path d="M985 198H1387V222H985V198Z" fill="#007C82"/>
<path d="M985 560H1387V583H985V560Z" fill="#007C82"/>
<path d="M985 908H1387V931H985V908Z" fill="#007C82"/>
<path d="M1277.84 559.621H1334.29V499.438C1334.29 483.945 1321.66 471.412 1306.03 471.412C1290.41 471.412 1277.77 483.945 1277.77 499.438V559.621H1277.84Z" fill="#006060"/>
<path d="M1193.13 559.621H1249.58V499.438C1249.58 483.945 1236.94 471.412 1221.32 471.412C1205.7 471.412 1193.06 483.945 1193.06 499.438V559.621H1193.13Z" fill="#006060"/>
<path d="M1108.35 559.621H1164.8V499.438C1164.8 483.945 1152.16 471.412 1136.54 471.412C1120.92 471.412 1108.28 483.945 1108.28 499.438V559.621H1108.35Z" fill="#006060"/>
<path d="M1023.64 559.621H1080.09V499.438C1080.09 483.945 1067.45 471.412 1051.83 471.412C1036.21 471.412 1023.57 483.945 1023.57 499.438V559.621H1023.64Z" fill="#006060"/>
<path d="M1278.27 439.209H1334.72V379.026C1334.72 363.532 1322.09 351 1306.46 351C1290.84 351 1278.2 363.532 1278.2 379.026V439.209H1278.27Z" fill="#006060"/>
<path d="M1193.56 439.209H1250.01V379.026C1250.01 363.532 1237.38 351 1221.75 351C1206.13 351 1193.49 363.532 1193.49 379.026V439.209H1193.56Z" fill="#006060"/>
<path d="M1108.78 439.209H1165.23V379.026C1165.23 363.532 1152.59 351 1136.97 351C1121.35 351 1108.71 363.532 1108.71 379.026V439.209H1108.78Z" fill="#006060"/>
<path d="M1024.07 439.209H1080.52V379.026C1080.52 363.532 1067.88 351 1052.26 351C1036.64 351 1024 363.532 1024 379.026V439.209H1024.07Z" fill="#006060"/>
<path d="M1278.27 319.209H1334.72V259.026C1334.72 243.532 1322.09 231 1306.46 231C1290.84 231 1278.2 243.532 1278.2 259.026V319.209H1278.27Z" fill="#006060"/>
<path d="M1193.56 319.209H1250.01V259.026C1250.01 243.532 1237.38 231 1221.75 231C1206.13 231 1193.49 243.532 1193.49 259.026V319.209H1193.56Z" fill="#006060"/>
<path d="M1108.78 319.209H1165.23V259.026C1165.23 243.532 1152.59 231 1136.97 231C1121.35 231 1108.71 243.532 1108.71 259.026V319.209H1108.78Z" fill="#006060"/>
<path d="M1024.07 319.209H1080.52V259.026C1080.52 243.532 1067.88 231 1052.26 231C1036.64 231 1024 243.532 1024 259.026V319.209H1024.07Z" fill="#006060"/>
<path d="M1216.03 893.577H1329V671.024C1329 640.106 1303.73 615.042 1272.55 615.042C1241.37 615.042 1216.1 640.106 1216.1 671.024V893.577H1216.03Z" fill="#006060"/>
<path d="M1043.03 893.577H1156V671.024C1156 640.106 1130.73 615.042 1099.55 615.042C1068.37 615.042 1043.1 640.106 1043.1 671.024V893.577H1043.03Z" fill="#006060"/>
</g>
<g opacity="0.4">
<path d="M369.455 317H680.549V946.757H369.455V317Z" fill="#007C82"/>
<path d="M356 470.864H694V491.043H356V470.864Z" fill="#007C82"/>
<path d="M356 317H694V337.179H356V317Z" fill="#007C82"/>
<path d="M356 621.369H694V640.707H356V621.369Z" fill="#007C82"/>
<path d="M356 913.967H694V933.305H356V913.967Z" fill="#007C82"/>
<path d="M602.223 621.048H649.687V570.446C649.687 557.42 639.061 546.882 625.925 546.882C612.79 546.882 602.164 557.42 602.164 570.446V621.048H602.223Z" fill="#006060"/>
<path d="M530.993 621.048H578.457V570.446C578.457 557.42 567.832 546.882 554.696 546.882C541.56 546.882 530.935 557.42 530.935 570.446V621.048H530.993Z" fill="#006060"/>
<path d="M459.712 621.048H507.175V570.446C507.175 557.42 496.55 546.882 483.414 546.882C470.278 546.882 459.653 557.42 459.653 570.446V621.048H459.712Z" fill="#006060"/>
<path d="M388.492 621.048H435.956V570.446C435.956 557.42 425.331 546.882 412.195 546.882C399.059 546.882 388.434 557.42 388.434 570.446V621.048H388.492Z" fill="#006060"/>
<path d="M602.58 519.806H650.043V469.205C650.043 456.178 639.418 445.641 626.282 445.641C613.147 445.641 602.521 456.178 602.521 469.205V519.806H602.58Z" fill="#006060"/>
<path d="M531.361 519.806H578.825V469.205C578.825 456.178 568.199 445.641 555.064 445.641C541.928 445.641 531.303 456.178 531.303 469.205V519.806H531.361Z" fill="#006060"/>
<path d="M460.077 519.806H507.541V469.205C507.541 456.178 496.915 445.641 483.779 445.641C470.644 445.641 460.018 456.178 460.018 469.205V519.806H460.077Z" fill="#006060"/>
<path d="M388.845 519.806H436.309V469.205C436.309 456.178 425.684 445.641 412.548 445.641C399.412 445.641 388.787 456.178 388.787 469.205V519.806H388.845Z" fill="#006060"/>
<path d="M602.58 418.913H650.043V368.312C650.043 355.285 639.418 344.748 626.282 344.748C613.147 344.748 602.521 355.285 602.521 368.312V418.913H602.58Z" fill="#006060"/>
<path d="M531.361 418.913H578.825V368.312C578.825 355.285 568.199 344.748 555.064 344.748C541.928 344.748 531.303 355.285 531.303 368.312V418.913H531.361Z" fill="#006060"/>
<path d="M460.077 418.913H507.541V368.312C507.541 355.285 496.915 344.748 483.779 344.748C470.644 344.748 460.018 355.285 460.018 368.312V418.913H460.077Z" fill="#006060"/>
<path d="M388.845 418.913H436.309V368.312C436.309 355.285 425.684 344.748 412.548 344.748C399.412 344.748 388.787 355.285 388.787 368.312V418.913H388.845Z" fill="#006060"/>
<path d="M550.245 901.84H645.231V714.718C645.231 688.723 623.981 667.648 597.768 667.648C571.554 667.648 550.304 688.723 550.304 714.718V901.84H550.245Z" fill="#006060"/>
<path d="M404.793 901.84H499.779V714.718C499.779 688.723 478.529 667.648 452.315 667.648C426.102 667.648 404.852 688.723 404.852 714.718V901.84H404.793Z" fill="#006060"/>
</g>
<g opacity="0.4">
<path d="M56.7239 549.438H455.279V946.865H56.7239V549.438Z" fill="#007C82"/>
<path d="M45 532H467V549.437H45V532Z" fill="#007C82"/>
<path d="M45 662.781H467V680.219H45V662.781Z" fill="#007C82"/>
<path d="M45 917.802H467V935.24H45V917.802Z" fill="#007C82"/>
<path d="M383.673 662.864H425.031V618.772C425.031 607.42 415.773 598.239 404.327 598.239C392.881 598.239 383.622 607.42 383.622 618.772V662.864H383.673Z" fill="#006060"/>
<path d="M321.611 662.864H362.969V618.772C362.969 607.42 353.711 598.239 342.265 598.239C330.819 598.239 321.56 607.42 321.56 618.772V662.864H321.611Z" fill="#006060"/>
<path d="M259.546 662.864H300.904V618.772C300.904 607.42 291.646 598.239 280.2 598.239C268.754 598.239 259.495 607.42 259.495 618.772V662.864H259.546Z" fill="#006060"/>
<path d="M197.485 662.864H238.843V618.772C238.843 607.42 229.584 598.239 218.138 598.239C206.692 598.239 197.434 607.42 197.434 618.772V662.864H197.485Z" fill="#006060"/>
<path d="M135.37 662.864H176.728V618.772C176.728 607.42 167.47 598.239 156.023 598.239C144.577 598.239 135.319 607.42 135.319 618.772V662.864H135.37Z" fill="#006060"/>
<path d="M73.3097 662.864H114.668V618.772C114.668 607.42 105.409 598.239 93.9634 598.239C82.5174 598.239 73.2588 607.42 73.2588 618.772V662.864H73.3097Z" fill="#006060"/>
<path d="M342.315 907.745H425.031V744.694C425.031 722.042 406.514 703.679 383.673 703.679C360.832 703.679 342.315 722.042 342.315 744.694V907.745V907.745Z" fill="#006060"/>
<path d="M214.262 907.534H297.029V744.483C297.029 721.831 278.512 703.468 255.671 703.468C232.83 703.468 214.313 721.831 214.313 744.483V907.534H214.262Z" fill="#006060"/>
<path d="M87.5144 907.534H170.282V744.483C170.282 721.831 151.765 703.468 128.923 703.468C106.082 703.468 87.5652 721.831 87.5652 744.483V907.534H87.5144Z" fill="#006060"/>
</g>
<g opacity="0.4">
<path d="M637.884 543.686H1042.11V946.764H637.884V543.686Z" fill="#007C82"/>
<path d="M626 526H1054V543.685H626V526Z" fill="#007C82"/>
<path d="M626 658.641H1054V676.326H626V658.641Z" fill="#007C82"/>
<path d="M626 917.288H1054V934.973H626V917.288Z" fill="#007C82"/>
<path d="M969.492 658.724H1011.44V614.005C1011.44 602.492 1002.05 593.18 990.44 593.18C978.831 593.18 969.441 602.492 969.441 614.005V658.724H969.492Z" fill="#006060"/>
<path d="M906.544 658.724H948.491V614.005C948.491 602.492 939.101 593.18 927.492 593.18C915.883 593.18 906.493 602.492 906.493 614.005V658.724H906.544Z" fill="#006060"/>
<path d="M843.594 658.724H885.541V614.005C885.541 602.492 876.15 593.18 864.542 593.18C852.933 593.18 843.543 602.492 843.543 614.005V658.724H843.594Z" fill="#006060"/>
<path d="M780.652 658.724H822.598V614.005C822.598 602.492 813.208 593.18 801.599 593.18C789.99 593.18 780.6 602.492 780.6 614.005V658.724H780.652Z" fill="#006060"/>
<path d="M717.656 658.724H759.603V614.005C759.603 602.492 750.212 593.18 738.604 593.18C726.995 593.18 717.605 602.492 717.605 614.005V658.724H717.656Z" fill="#006060"/>
<path d="M654.713 658.724H696.659V614.005C696.659 602.492 687.269 593.18 675.66 593.18C664.052 593.18 654.661 602.492 654.661 614.005V658.724H654.713Z" fill="#006060"/>
<path d="M927.546 907.087H1011.44V741.718C1011.44 718.744 992.658 700.12 969.492 700.12C946.326 700.12 927.546 718.744 927.546 741.718V907.087V907.087Z" fill="#006060"/>
<path d="M797.669 906.874H881.613V741.504C881.613 718.531 862.833 699.906 839.667 699.906C816.501 699.906 797.721 718.531 797.721 741.504V906.874H797.669Z" fill="#006060"/>
<path d="M669.119 906.874H753.063V741.504C753.063 718.531 734.283 699.906 711.117 699.906C687.951 699.906 669.17 718.531 669.17 741.504V906.874H669.119Z" fill="#006060"/>
</g>
<g opacity="0.6">
<path d="M666.303 449.815H709.66L724.311 508.87H651.653L666.303 449.815Z" fill="#0098A0"/>
<path d="M666.231 424.816H709.647V449.873H666.231V424.816Z" fill="#00858C"/>
<path d="M666.297 424.816H709.654L711.908 415.229H664.043L666.297 424.816Z" fill="#0098A0"/>
<path d="M711.904 370.467V415.229H700.457V368.173C700.457 361.35 694.882 355.762 687.942 355.762H720.564L711.904 370.467Z" fill="#00AFC1"/>
<path d="M687.942 355.762C681.062 355.762 675.427 361.291 675.427 368.173V415.229H663.98V370.467L655.32 355.762H687.942Z" fill="#00AFC1"/>
<path d="M657.453 407.052H718.485V415.287H657.453V407.052Z" fill="#00A1BC"/>
<path d="M723.587 355.468V357.468H652.413V355.468C652.413 353.115 652.65 350.762 653.125 348.527H722.935C723.35 350.821 723.587 353.115 723.587 355.468Z" fill="#00A1BC"/>
<path d="M654.488 348.586C657.928 333.41 671.629 322.058 687.999 322.058C704.369 322.058 718.07 333.41 721.51 348.586H654.488Z" fill="#00AFC1"/>
<path d="M683.253 326.116H692.743V310.706C692.743 308.118 690.608 306 687.998 306C685.388 306 683.253 308.118 683.253 310.706V326.116Z" fill="#00AFC1"/>
<path d="M639.246 945.842H736.695L722.579 552.161H653.362L639.246 945.842Z" fill="#0098A0"/>
<path d="M652.766 552.573H723.169L726.787 530.751H649.148L652.766 552.573Z" fill="#00858C"/>
<path d="M638 522.339H738V531.75H638V522.339Z" fill="#00A1BC"/>
<path d="M644.169 508.104H731.714V522.339H644.169V508.104Z" fill="#00AFC1"/>
<path d="M639.247 945.842L653.304 552.573L683.257 552.161L674.241 945.842H639.247Z" fill="#008391"/>
</g>
</svg>
