<svg width="1389" height="1225" viewBox="0 0 1389 1225" fill="none" xmlns="http://www.w3.org/2000/svg">
<g opacity="0.88">
<g opacity="0.81">
<path opacity="0.6" d="M846.6 545.2C868.691 545.2 886.6 527.291 886.6 505.2C886.6 483.109 868.691 465.2 846.6 465.2C824.509 465.2 806.6 483.109 806.6 505.2C806.6 527.291 824.509 545.2 846.6 545.2Z" fill="#E1FEFF"/>
<path opacity="0.8" d="M834.6 499.8C841.007 499.8 846.2 494.965 846.2 489C846.2 483.035 841.007 478.2 834.6 478.2C828.194 478.2 823 483.035 823 489C823 494.965 828.194 499.8 834.6 499.8Z" fill="#E1FEFF"/>
</g>
<g opacity="0.81">
<path opacity="0.6" d="M309.5 720.5C320.38 720.5 329.2 711.68 329.2 700.8C329.2 689.92 320.38 681.1 309.5 681.1C298.62 681.1 289.8 689.92 289.8 700.8C289.8 711.68 298.62 720.5 309.5 720.5Z" fill="#E1FEFF"/>
<path opacity="0.8" d="M303.6 698.2C306.748 698.2 309.3 695.827 309.3 692.9C309.3 689.973 306.748 687.6 303.6 687.6C300.452 687.6 297.9 689.973 297.9 692.9C297.9 695.827 300.452 698.2 303.6 698.2Z" fill="#E1FEFF"/>
</g>
<g opacity="0.81">
<path opacity="0.6" d="M390.4 674.5C404.704 674.5 416.3 662.904 416.3 648.6C416.3 634.296 404.704 622.7 390.4 622.7C376.096 622.7 364.5 634.296 364.5 648.6C364.5 662.904 376.096 674.5 390.4 674.5Z" fill="#E1FEFF"/>
<path opacity="0.8" d="M382.7 645.1C386.842 645.1 390.2 641.966 390.2 638.1C390.2 634.234 386.842 631.1 382.7 631.1C378.558 631.1 375.2 634.234 375.2 638.1C375.2 641.966 378.558 645.1 382.7 645.1Z" fill="#E1FEFF"/>
</g>
<g opacity="0.81">
<path opacity="0.6" d="M25.9 1000.9C40.2042 1000.9 51.8 989.304 51.8 975C51.8 960.696 40.2042 949.1 25.9 949.1C11.5958 949.1 0 960.696 0 975C0 989.304 11.5958 1000.9 25.9 1000.9Z" fill="#E1FEFF"/>
<path opacity="0.8" d="M18.1001 971.6C22.2422 971.6 25.6001 968.466 25.6001 964.6C25.6001 960.734 22.2422 957.6 18.1001 957.6C13.958 957.6 10.6001 960.734 10.6001 964.6C10.6001 968.466 13.958 971.6 18.1001 971.6Z" fill="#E1FEFF"/>
</g>
<g opacity="0.81">
<path opacity="0.6" d="M1267.5 762.8C1291.75 762.8 1311.4 743.145 1311.4 718.9C1311.4 694.655 1291.75 675 1267.5 675C1243.25 675 1223.6 694.655 1223.6 718.9C1223.6 743.145 1243.25 762.8 1267.5 762.8Z" fill="#E1FEFF"/>
<path opacity="0.8" d="M1254.4 712.9C1261.47 712.9 1267.2 707.617 1267.2 701.1C1267.2 694.583 1261.47 689.3 1254.4 689.3C1247.33 689.3 1241.6 694.583 1241.6 701.1C1241.6 707.617 1247.33 712.9 1254.4 712.9Z" fill="#E1FEFF"/>
</g>
<g opacity="0.81">
<path opacity="0.6" d="M1074 243C1085.76 243 1095.3 233.464 1095.3 221.7C1095.3 209.936 1085.76 200.4 1074 200.4C1062.24 200.4 1052.7 209.936 1052.7 221.7C1052.7 233.464 1062.24 243 1074 243Z" fill="#E1FEFF"/>
<path opacity="0.8" d="M1067.6 218.8C1071.02 218.8 1073.8 216.248 1073.8 213.1C1073.8 209.952 1071.02 207.4 1067.6 207.4C1064.18 207.4 1061.4 209.952 1061.4 213.1C1061.4 216.248 1064.18 218.8 1067.6 218.8Z" fill="#E1FEFF"/>
</g>
<g opacity="0.81">
<path opacity="0.6" d="M719.7 87.2C731.464 87.2 741 77.6636 741 65.9C741 54.1363 731.464 44.6 719.7 44.6C707.936 44.6 698.4 54.1363 698.4 65.9C698.4 77.6636 707.936 87.2 719.7 87.2Z" fill="#E1FEFF"/>
<path opacity="0.8" d="M720.98 59.0628C721.82 62.3826 724.975 64.448 728.027 63.6761C731.079 62.9042 732.872 59.5873 732.033 56.2676C731.193 52.9478 728.038 50.8825 724.986 51.6544C721.934 52.4262 720.141 55.7431 720.98 59.0628Z" fill="#E1FEFF"/>
</g>
<g opacity="0.81">
<path opacity="0.6" d="M405.2 212.5C414.147 212.5 421.4 205.247 421.4 196.3C421.4 187.353 414.147 180.1 405.2 180.1C396.253 180.1 389 187.353 389 196.3C389 205.247 396.253 212.5 405.2 212.5Z" fill="#E1FEFF"/>
<path opacity="0.8" d="M406.01 191.058C406.646 193.574 409.072 195.131 411.428 194.535C413.784 193.94 415.178 191.416 414.541 188.9C413.905 186.383 411.479 184.826 409.123 185.422C406.767 186.018 405.373 188.541 406.01 191.058Z" fill="#E1FEFF"/>
</g>
<g opacity="0.81">
<path opacity="0.6" d="M67.3001 141.7C76.2471 141.7 83.5001 134.447 83.5001 125.5C83.5001 116.553 76.2471 109.3 67.3001 109.3C58.3531 109.3 51.1001 116.553 51.1001 125.5C51.1001 134.447 58.3531 141.7 67.3001 141.7Z" fill="#E1FEFF"/>
<path opacity="0.8" d="M62.633 122.974C65.2199 123.187 67.4783 121.396 67.6774 118.974C67.8764 116.553 65.9406 114.417 63.3537 114.204C60.7668 113.992 58.5083 115.783 58.3093 118.204C58.1103 120.626 60.0461 122.762 62.633 122.974Z" fill="#E1FEFF"/>
</g>
<g opacity="0.81">
<path opacity="0.6" d="M1083 949C1099.46 949 1112.8 935.658 1112.8 919.2C1112.8 902.742 1099.46 889.4 1083 889.4C1066.54 889.4 1053.2 902.742 1053.2 919.2C1053.2 935.658 1066.54 949 1083 949Z" fill="#E1FEFF"/>
<path opacity="0.8" d="M1074 915.1C1078.81 915.1 1082.7 911.518 1082.7 907.1C1082.7 902.682 1078.81 899.1 1074 899.1C1069.2 899.1 1065.3 902.682 1065.3 907.1C1065.3 911.518 1069.2 915.1 1074 915.1Z" fill="#E1FEFF"/>
</g>
<g opacity="0.81">
<path opacity="0.6" d="M603.4 1144.6C619.858 1144.6 633.2 1131.26 633.2 1114.8C633.2 1098.34 619.858 1085 603.4 1085C586.942 1085 573.6 1098.34 573.6 1114.8C573.6 1131.26 586.942 1144.6 603.4 1144.6Z" fill="#E1FEFF"/>
<path opacity="0.8" d="M594.5 1110.7C599.305 1110.7 603.2 1107.12 603.2 1102.7C603.2 1098.28 599.305 1094.7 594.5 1094.7C589.695 1094.7 585.8 1098.28 585.8 1102.7C585.8 1107.12 589.695 1110.7 594.5 1110.7Z" fill="#E1FEFF"/>
</g>
<g opacity="0.81">
<path opacity="0.6" d="M219.7 333.7C236.158 333.7 249.5 320.358 249.5 303.9C249.5 287.442 236.158 274.1 219.7 274.1C203.242 274.1 189.9 287.442 189.9 303.9C189.9 320.358 203.242 333.7 219.7 333.7Z" fill="#E1FEFF"/>
<path opacity="0.8" d="M225.622 296.069C224.536 300.749 227.145 305.353 231.449 306.352C235.753 307.35 240.122 304.365 241.208 299.685C242.294 295.004 239.685 290.401 235.381 289.402C231.077 288.404 226.708 291.388 225.622 296.069Z" fill="#E1FEFF"/>
</g>
<g opacity="0.81">
<path opacity="0.6" d="M303.6 553.4C312.161 553.4 319.1 546.46 319.1 537.9C319.1 529.339 312.161 522.4 303.6 522.4C295.04 522.4 288.1 529.339 288.1 537.9C288.1 546.46 295.04 553.4 303.6 553.4Z" fill="#E1FEFF"/>
<path opacity="0.8" d="M305.639 533.276C305.664 535.761 307.565 537.757 309.885 537.733C312.204 537.709 314.064 535.675 314.038 533.19C314.012 530.705 312.112 528.71 309.792 528.734C307.473 528.757 305.613 530.791 305.639 533.276Z" fill="#E1FEFF"/>
</g>
<g opacity="0.81">
<path opacity="0.6" d="M933.4 599.1C942.789 599.1 950.4 591.489 950.4 582.1C950.4 572.711 942.789 565.1 933.4 565.1C924.011 565.1 916.4 572.711 916.4 582.1C916.4 591.489 924.011 599.1 933.4 599.1Z" fill="#E1FEFF"/>
<path opacity="0.8" d="M934.686 576.623C935.203 579.28 937.643 581.04 940.137 580.555C942.631 580.069 944.233 577.523 943.716 574.866C943.2 572.21 940.759 570.45 938.265 570.935C935.771 571.42 934.169 573.967 934.686 576.623Z" fill="#E1FEFF"/>
</g>
<g opacity="0.81">
<path opacity="0.6" d="M1371.6 542.1C1380.99 542.1 1388.6 534.489 1388.6 525.1C1388.6 515.711 1380.99 508.1 1371.6 508.1C1362.21 508.1 1354.6 515.711 1354.6 525.1C1354.6 534.489 1362.21 542.1 1371.6 542.1Z" fill="#E1FEFF"/>
<path opacity="0.8" d="M1372.85 519.666C1373.36 522.322 1375.81 524.083 1378.3 523.597C1380.79 523.112 1382.4 520.565 1381.88 517.909C1381.36 515.252 1378.92 513.492 1376.43 513.978C1373.93 514.463 1372.33 517.01 1372.85 519.666Z" fill="#E1FEFF"/>
</g>
<g opacity="0.81">
<path opacity="0.6" d="M933.4 417.7C939.53 417.7 944.5 412.73 944.5 406.6C944.5 400.47 939.53 395.5 933.4 395.5C927.27 395.5 922.3 400.47 922.3 406.6C922.3 412.73 927.27 417.7 933.4 417.7Z" fill="#E1FEFF"/>
<path opacity="0.8" d="M934.224 403.095C934.562 404.829 936.154 405.979 937.78 405.663C939.406 405.346 940.451 403.683 940.114 401.949C939.776 400.214 938.184 399.064 936.558 399.38C934.931 399.697 933.886 401.36 934.224 403.095Z" fill="#E1FEFF"/>
</g>
<g opacity="0.81">
<path opacity="0.6" d="M97.4999 389.1C103.63 389.1 108.6 384.13 108.6 378C108.6 371.87 103.63 366.9 97.4999 366.9C91.3695 366.9 86.3999 371.87 86.3999 378C86.3999 384.13 91.3695 389.1 97.4999 389.1Z" fill="#E1FEFF"/>
<path opacity="0.8" d="M98.2555 374.431C98.5931 376.166 100.185 377.315 101.812 376.999C103.438 376.683 104.483 375.02 104.145 373.285C103.808 371.55 102.216 370.4 100.589 370.717C98.9628 371.033 97.918 372.696 98.2555 374.431Z" fill="#E1FEFF"/>
</g>
<g opacity="0.81">
<path opacity="0.6" d="M613.1 846.3C619.23 846.3 624.2 841.33 624.2 835.2C624.2 829.07 619.23 824.1 613.1 824.1C606.97 824.1 602 829.07 602 835.2C602 841.33 606.97 846.3 613.1 846.3Z" fill="#E1FEFF"/>
<path opacity="0.8" d="M613.897 831.675C614.235 833.41 615.827 834.559 617.453 834.243C619.08 833.926 620.125 832.264 619.787 830.529C619.449 828.794 617.857 827.644 616.231 827.961C614.605 828.277 613.56 829.94 613.897 831.675Z" fill="#E1FEFF"/>
</g>
<g opacity="0.81">
<path opacity="0.6" d="M218 1091.3C226.339 1091.3 233.1 1084.54 233.1 1076.2C233.1 1067.86 226.339 1061.1 218 1061.1C209.66 1061.1 202.9 1067.86 202.9 1076.2C202.9 1084.54 209.66 1091.3 218 1091.3Z" fill="#E1FEFF"/>
<path opacity="0.8" d="M219.19 1071.47C219.654 1073.86 221.832 1075.44 224.054 1075.01C226.277 1074.57 227.703 1072.29 227.239 1069.9C226.774 1067.52 224.596 1065.94 222.374 1066.37C220.151 1066.8 218.725 1069.08 219.19 1071.47Z" fill="#E1FEFF"/>
</g>
<g opacity="0.81">
<path opacity="0.6" d="M511.4 432.8C519.74 432.8 526.5 426.039 526.5 417.7C526.5 409.36 519.74 402.6 511.4 402.6C503.061 402.6 496.3 409.36 496.3 417.7C496.3 426.039 503.061 432.8 511.4 432.8Z" fill="#E1FEFF"/>
<path opacity="0.8" d="M512.517 412.89C512.981 415.276 515.159 416.859 517.382 416.426C519.605 415.994 521.03 413.71 520.566 411.324C520.102 408.939 517.924 407.356 515.701 407.788C513.479 408.221 512.053 410.505 512.517 412.89Z" fill="#E1FEFF"/>
</g>
<g opacity="0.81">
<path opacity="0.6" d="M1248.2 1100C1256.54 1100 1263.3 1093.24 1263.3 1084.9C1263.3 1076.56 1256.54 1069.8 1248.2 1069.8C1239.86 1069.8 1233.1 1076.56 1233.1 1084.9C1233.1 1093.24 1239.86 1100 1248.2 1100Z" fill="#E1FEFF"/>
<path opacity="0.8" d="M1249.33 1080.14C1249.79 1082.53 1251.97 1084.11 1254.19 1083.68C1256.41 1083.25 1257.84 1080.96 1257.38 1078.58C1256.91 1076.19 1254.73 1074.61 1252.51 1075.04C1250.29 1075.47 1248.86 1077.76 1249.33 1080.14Z" fill="#E1FEFF"/>
</g>
<g opacity="0.81">
<path opacity="0.6" d="M886.6 1224.4C894.94 1224.4 901.7 1217.64 901.7 1209.3C901.7 1200.96 894.94 1194.2 886.6 1194.2C878.261 1194.2 871.5 1200.96 871.5 1209.3C871.5 1217.64 878.261 1224.4 886.6 1224.4Z" fill="#E1FEFF"/>
<path opacity="0.8" d="M891.264 1211.06C888.836 1211.18 886.959 1213.11 887.07 1215.37C887.181 1217.63 889.239 1219.37 891.666 1219.25C894.093 1219.13 895.971 1217.2 895.859 1214.94C895.748 1212.67 893.691 1210.94 891.264 1211.06Z" fill="#E1FEFF"/>
</g>
<g opacity="0.81">
<path opacity="0.6" d="M834.6 890C842.94 890 849.7 883.239 849.7 874.9C849.7 866.56 842.94 859.8 834.6 859.8C826.261 859.8 819.5 866.56 819.5 874.9C819.5 883.239 826.261 890 834.6 890Z" fill="#E1FEFF"/>
<path opacity="0.8" d="M835.729 870.066C836.193 872.451 838.371 874.034 840.594 873.602C842.817 873.169 844.243 870.885 843.778 868.499C843.314 866.114 841.136 864.531 838.913 864.963C836.691 865.396 835.265 867.68 835.729 870.066Z" fill="#E1FEFF"/>
</g>
<g opacity="0.81">
<path opacity="0.6" d="M383.8 874.9C408.487 874.9 428.5 854.887 428.5 830.2C428.5 805.513 408.487 785.5 383.8 785.5C359.113 785.5 339.1 805.513 339.1 830.2C339.1 854.887 359.113 874.9 383.8 874.9Z" fill="#E1FEFF"/>
<path opacity="0.8" d="M387.184 815.936C388.555 822.984 394.941 827.671 401.446 826.405C407.952 825.139 412.114 818.4 410.742 811.352C409.371 804.305 402.986 799.618 396.48 800.883C389.975 802.149 385.813 808.889 387.184 815.936Z" fill="#E1FEFF"/>
</g>
<g opacity="0.81">
<path opacity="0.6" d="M1203.5 89.4C1228.19 89.4 1248.2 69.3871 1248.2 44.7C1248.2 20.0129 1228.19 0 1203.5 0C1178.81 0 1158.8 20.0129 1158.8 44.7C1158.8 69.3871 1178.81 89.4 1203.5 89.4Z" fill="#E1FEFF"/>
<path opacity="0.8" d="M1206.93 30.2818C1208.3 37.3294 1214.68 42.0164 1221.19 40.7506C1227.7 39.4848 1231.86 32.7454 1230.49 25.6978C1229.11 18.6502 1222.73 13.9632 1216.22 15.229C1209.72 16.4948 1205.56 23.2342 1206.93 30.2818Z" fill="#E1FEFF"/>
</g>
</g>
</svg>
