<svg width="859" height="506" viewBox="0 0 859 506" fill="none" xmlns="http://www.w3.org/2000/svg">
<path d="M823.907 205.453C789.56 171.88 743 170.04 697.867 171.333C692.333 117.48 672.6 66.24 626.133 33.5066C590.44 8.35997 545.44 -1.54666 501.826 0.480011C437.946 3.45334 373.333 26.4667 328.613 71.9333C306.947 68.0533 284.293 69.64 263.52 76.9333C240.293 85.0933 219.72 100.293 204.64 119.707C145.933 80.1067 34.84 131.747 8.85334 188.627C7.13334 192.387 5.69334 196.16 4.52001 199.947C-4.49332 228.76 1.15996 258.427 11.4 286.68C8.30663 295.84 6.6266 305.453 6.5066 315.107C6.25327 335.093 12.48 354.76 21.8933 372.387C49.0533 423.24 103.96 457.587 161.467 461.8C198.68 464.533 235.147 455.667 270.627 443.107C287.32 455.947 306.667 466.027 323.947 474.28C399.4 510.293 504.36 521.827 571.853 469.24C604.013 477.08 638.347 481.093 670.667 478.267C690.267 476.56 709.44 470.187 724.867 459.667C747.8 460.587 770.92 457.947 792.08 449.28C818.387 438.493 841.36 417.453 850 390.36C854.267 376.973 854.48 362.2 850.827 348.653C865.027 299.027 863.067 243.707 823.907 205.453" fill="#C7EBFA"/>
<path d="M691.72 305.32C685.907 322.773 671.787 337.4 654.8 343.973C665.44 315.96 667.84 284.493 651.32 258.133C649.133 254.653 646.72 251.413 644.12 248.427C626.36 228.107 599.413 219.173 572.493 219.507C570.52 208.72 565.533 198.48 557.973 190.547C546.24 178.227 528.693 171.84 511.787 173.293C523.907 166.64 537.133 162.013 550.853 160.507C568.32 158.6 586.587 161.96 601.453 171.32C613.173 178.707 622.573 189.947 627.32 202.88C646.187 208.133 663.667 218.333 676.253 233.253C692.8 252.88 699.84 280.96 691.72 305.32V305.32ZM503.653 94.9867C491.587 86.4 476.453 83.0534 461.64 82.6134C444.693 82.0934 427.507 85.1867 412.347 92.7867C404.293 96.84 395.92 101.547 389.333 107.787C393.813 99.1867 399.067 90.3733 405.573 83.9733C418.707 71.08 436.187 62.2533 454.573 61.2C472.947 60.1467 492 67.3867 503.72 81.5867C505.467 83.7067 507.04 85.9867 508.4 88.3733C511.427 93.68 513.493 99.5467 514.453 105.56C511.427 101.507 507.747 97.9067 503.653 94.9867V94.9867ZM377.853 253.373C377.773 254.133 377.68 254.893 377.573 255.64C376.013 266.16 371.293 276.093 364.427 284.2C363.893 266.6 359.693 249.24 345.133 237.667C326.28 222.693 302.2 226.373 280.44 232.947C275.853 219.813 264.387 209.787 250.733 204.613C229.4 196.547 207.053 201.133 187.093 210.72C194.32 194.413 206.44 180.107 222.147 171.707C239.133 162.613 260.347 160.987 277.853 169.053C288.507 173.96 297.453 182.627 302.813 192.973C319.733 187.533 339.24 190.16 353.827 200.413C370.453 212.107 379.933 233.173 377.853 253.373V253.373ZM858.853 290.787C858.147 259.4 848.173 229.16 823.907 205.453C789.56 171.88 743 170.04 697.867 171.333C692.333 117.48 672.6 66.24 626.133 33.5067C590.44 8.35998 545.44 -1.54664 501.827 0.480024C437.947 3.45336 373.333 26.4667 328.613 71.9333C306.947 68.0533 284.293 69.64 263.52 76.9333C240.293 85.0933 219.72 100.293 204.64 119.707C159.947 89.56 84.8666 112.293 40.1466 149.973C45.6666 178.307 58.2934 205.187 79.0267 225.013C95.4 240.667 117.24 251.04 139.613 253.653C151.973 278.947 173.213 299.933 198.933 311.467C220.947 321.347 245.947 324.147 269.653 320C282.28 343.147 304.013 361.92 328.467 372.547C352.093 382.827 377.827 386.573 403.707 386.387C424.667 400.627 451.96 406.693 477.813 408.2C500.867 409.547 524.667 408.013 545.773 398.613C554.933 394.547 563.533 388.787 570.68 381.773C593.947 391.187 618.707 396.907 643.747 398.587C664.68 399.987 686.467 398.4 705.133 388.84C714.08 384.253 722.173 377.533 728.173 369.453C744.16 372.627 761.093 370.76 776.08 364.44C796.667 380.987 821.467 392.307 847.44 397.187C848.413 394.96 849.253 392.68 850 390.36C854.267 376.973 854.48 362.2 850.827 348.653C856.227 329.773 859.293 310.067 858.853 290.787" fill="white"/>
</svg>
