<svg width="979" height="446" viewBox="0 0 979 446" fill="none" xmlns="http://www.w3.org/2000/svg">
<path d="M264.84 131.347C276.973 123.92 291.36 120.573 305.68 120.827C303.92 77.12 328.787 36.6266 368.867 15.7732C425.88 -13.9068 516.507 0.973212 550.093 59.2132C579.32 46.0799 611.4 41.8799 642.36 53.1732C667.227 62.2266 687.333 80.9866 693.613 105.773C703.72 106.52 713.733 108 723.547 110.72C785.773 127.987 797.24 190.613 786.893 246.293C807.893 239.813 830.64 237.533 851.347 242.08C879.587 248.28 893.373 269.387 898.667 293.945C919.827 288.971 942.507 295.907 958.893 312.045C984.76 337.531 984.6 377.419 964.107 406.127C922.933 463.839 830.493 451.327 779.947 414.22C774.507 410.229 769.36 405.841 764.613 401.053C744.067 425.555 712.587 440.74 680.507 441.257C651.947 441.717 623.453 430.527 602.493 411.169C578.32 419.269 550.24 418.864 526.547 412.296C509.067 407.448 490.493 397.199 482.16 381.327C473.227 381.732 464.253 381.377 455.32 380.016C427.027 375.712 400.56 360.892 381.733 339.403C368.587 363.392 346.16 381.971 321.027 393.076C280.4 411.027 234.573 408.497 192.36 397.939C170.707 392.524 149.653 385.1 128.893 376.939C101.44 388.859 70.16 394.981 42.2933 383.732C16.96 373.512 -3.96009 346.032 0.746581 317.793C4.02658 298.176 19.7066 280.585 38.6133 276.844C36.4799 226.587 83.44 181.48 136.493 192.52C153.907 196.147 170.6 205.88 178.973 220.867C192.213 205.507 215.013 197.92 236.6 197.227C235.573 173.28 239.387 149.587 260.587 134.173C261.973 133.173 263.387 132.227 264.84 131.347" fill="#C7EBFA"/>
<path d="M279.533 225.747C279.24 233.053 278.053 240.334 276.08 247.387C284.027 259.48 287.813 274.35 286.067 288.735C283.493 309.882 269.027 329.176 249.44 337.574C232.36 344.9 211.947 343.688 195.667 334.816C187.8 339.436 178.333 341.195 169.133 341.526C153.68 342.083 137.48 338.679 125.573 328.816C115.347 320.362 109.12 306.503 111.067 293.628C98.1999 292.375 85.6265 287.795 75.0799 280.256C61.1332 270.28 50.9332 255.254 46.5732 238.694C61.9599 206.52 97.6 184.427 136.493 192.52C153.907 196.147 170.6 205.88 178.973 220.867C192.213 205.507 215.013 197.92 236.6 197.227C235.893 180.68 237.493 164.24 245.56 150.587C264.4 166.28 276.96 189.507 279.227 213.96C279.587 217.88 279.68 221.814 279.533 225.747" fill="white"/>
<path d="M502.973 153.48C509.2 139.707 520.08 128.014 533.52 121.054C545 115.107 558.213 112.667 571.08 113.854C567.64 112.6 564.093 111.587 560.507 110.84C552.627 109.214 544.48 108.854 536.493 109.96C527.107 111.254 517.587 114.667 511.2 121.667C505.2 128.227 502.56 137.374 502.52 146.267C502.507 148.68 502.667 151.093 502.973 153.48V153.48ZM589.867 190.707C607.68 198.467 613.133 214.067 614.24 231.107C627.56 230.814 640.8 232.067 651.88 240.574C665.667 251.174 669.907 266.587 669.587 282.506C673.387 276.284 676.333 269.534 678.253 262.494C682.24 247.8 680.92 230.014 669.24 220.227C662.88 214.907 654.733 212.92 646.347 212.107C644.853 201.72 638.693 191.867 630.133 185.56C618.307 176.814 602.733 174.227 588.12 176C583.76 176.534 579.453 177.414 575.227 178.587C568.627 180.4 562.213 182.88 555.947 185.707C567.507 185.28 579.173 186.04 589.867 190.707V190.707ZM368.867 15.7735C425.88 -13.9065 516.507 0.9735 550.093 59.2135C579.32 46.0802 611.4 41.8802 642.36 53.1735C667.227 62.2269 687.333 80.9869 693.613 105.774C703.72 106.52 713.733 108 723.547 110.72C785.773 127.987 797.24 190.614 786.893 246.294C807.893 239.814 830.64 237.533 851.347 242.08C879.587 248.28 893.373 269.387 898.667 293.944C919.827 288.971 942.507 295.907 958.893 312.046C970.36 323.34 976.707 337.464 978.453 352.188C974.147 356.118 969.227 359.418 963.96 361.943C954.987 366.246 944.96 368.302 935.013 367.4C921.44 366.17 908.68 359.471 899.28 349.613C883.973 357.307 865.36 358.615 849.333 352.366C832.28 345.718 818.867 330.788 813.373 313.395C801.387 315.098 788.867 313.228 778.107 307.663C766.227 301.516 756.787 291.023 751.427 278.818C749.227 279.714 746.88 280.328 744.547 280.841C739.227 282.015 733.8 282.727 728.373 282.966C731.253 293.659 730.72 305.368 726.613 315.69C719.6 333.326 703.04 346.478 684.547 350.75C671.347 353.796 657.387 352.515 644.653 347.855C635.28 359.944 621.267 368.531 606.053 370.416C587.613 372.7 568.48 365.002 556 351.388C538.053 360.432 516.373 362.395 497.333 355.722C473.44 347.352 454.907 326.204 448.24 301.844C435.947 301.827 423.64 298.668 413.027 292.455C393.867 281.243 380.68 260.387 378.787 238.254C377.293 220.72 382.92 202.747 393.787 188.934C386.307 181.027 380.627 171.427 377.533 160.987C373.573 147.614 373.933 133.093 378.147 119.813C367.613 118.04 357.387 114.507 348.053 109.334C333.92 101.507 321.88 89.9602 313.373 76.2402C323.48 50.8535 343.013 29.2269 368.867 15.7735Z" fill="white"/>
</svg>
