<svg width="1191" height="1473" viewBox="0 0 1191 1473" fill="none" xmlns="http://www.w3.org/2000/svg">
<g opacity="0.5">
<path d="M84 87.8C84 87.8 133.4 45.3 224.6 53.5C224.6 53.5 228 24 258.9 0C258.9 0 244.5 30.2 263.7 51.4C263.7 51.4 291.8 66.5 335 71.3C378.2 76.1 384.4 76.1001 396 63.1001C407.7 50.1001 410.4 38.4 419.3 32.9C419.3 32.9 407 65.8 407.6 79.5C407.6 79.5 417.2 102.1 426.1 113.1C426.1 113.1 387 92.5001 371.9 89.1001C356.8 85.7001 329.4 91.8 303.3 97.3C277.2 102.8 255 108.3 255 108.3C255 108.3 265.6 125.4 274.5 126.1C274.5 126.1 233.4 127.5 217.6 114.4C217.6 114.4 207.3 114.4 199.8 121.9C192.3 129.4 179.2 141.1 179.2 141.1C179.2 141.1 175.8 124.6 181.3 116.4C181.3 116.4 147 115.7 120.9 107.5C95 99.5 84 87.8 84 87.8Z" fill="#013542"/>
<path d="M1113 512.738C1113 512.738 1061.45 470.268 966.276 478.462C966.276 478.462 962.728 448.983 930.482 425C930.482 425 945.509 455.179 925.473 476.364C925.473 476.364 896.149 491.453 851.068 496.249C805.986 501.046 799.516 501.046 787.411 488.055C775.201 475.065 772.384 463.373 763.096 457.877C763.096 457.877 775.932 490.753 775.306 504.444C775.306 504.444 765.288 527.028 756 538.02C756 538.02 796.803 517.434 812.561 514.037C828.318 510.639 856.912 516.735 884.149 522.231C911.385 527.727 934.552 533.223 934.552 533.223C934.552 533.223 923.49 550.311 914.203 551.011C914.203 551.011 957.093 552.41 973.581 539.319C973.581 539.319 984.33 539.319 992.156 546.814C999.983 554.308 1013.65 566 1013.65 566C1013.65 566 1017.2 549.512 1011.46 541.317C1011.46 541.317 1047.26 540.618 1074.49 532.424C1101.52 524.429 1113 512.738 1113 512.738Z" fill="#013542"/>
<path d="M844 1419.74C844 1419.74 894.108 1377.27 986.614 1385.46C986.614 1385.46 990.063 1355.98 1021.41 1332C1021.41 1332 1006.8 1362.18 1026.27 1383.36C1026.27 1383.36 1054.78 1398.45 1098.6 1403.25C1142.41 1408.05 1148.7 1408.05 1160.47 1395.06C1172.34 1382.06 1175.08 1370.37 1184.1 1364.88C1184.1 1364.88 1171.63 1397.75 1172.24 1411.44C1172.24 1411.44 1181.97 1434.03 1191 1445.02C1191 1445.02 1151.34 1424.43 1136.02 1421.04C1120.71 1417.64 1092.91 1423.73 1066.44 1429.23C1039.97 1434.73 1017.45 1440.22 1017.45 1440.22C1017.45 1440.22 1028.2 1457.31 1037.23 1458.01C1037.23 1458.01 995.54 1459.41 979.514 1446.32C979.514 1446.32 969.066 1446.32 961.459 1453.81C953.851 1461.31 940.564 1473 940.564 1473C940.564 1473 937.115 1456.51 942.694 1448.32C942.694 1448.32 907.902 1447.62 881.429 1439.42C855.158 1431.43 844 1419.74 844 1419.74Z" fill="#013542"/>
<path d="M357 1019.74C357 1019.74 305.448 977.268 210.276 985.462C210.276 985.462 206.728 955.983 174.482 932C174.482 932 189.509 962.179 169.473 983.364C169.473 983.364 140.149 998.453 95.0678 1003.25C49.9863 1008.05 43.5162 1008.05 31.411 995.055C19.2014 982.065 16.3838 970.373 7.09617 964.877C7.09617 964.877 19.9319 997.753 19.3058 1011.44C19.3058 1011.44 9.28765 1034.03 1.58215e-05 1045.02C1.58215e-05 1045.02 40.8029 1024.43 56.5606 1021.04C72.3183 1017.64 100.912 1023.73 128.149 1029.23C155.385 1034.73 178.552 1040.22 178.552 1040.22C178.552 1040.22 167.49 1057.31 158.203 1058.01C158.203 1058.01 201.093 1059.41 217.581 1046.32C217.581 1046.32 228.33 1046.32 236.156 1053.81C243.983 1061.31 257.654 1073 257.654 1073C257.654 1073 261.202 1056.51 255.462 1048.32C255.462 1048.32 291.256 1047.62 318.493 1039.42C345.521 1031.43 357 1019.74 357 1019.74Z" fill="#013542"/>
<path d="M273.3 340.009C273.3 340.009 265.1 331.709 250.9 330.209C233 328.309 223 340.009 223 340.009C223 340.009 230 353.209 249.8 350.409C269.6 347.609 273 342.109 273.2 342.109C273.4 342.109 282.6 345.309 287 349.809C287 349.809 285.5 336.309 287 330.209C287.2 330.209 278.2 338.309 273.3 340.009Z" fill="#013542"/>
<path d="M196.3 400.009C196.3 400.009 188.1 391.709 173.9 390.209C156 388.309 146 400.009 146 400.009C146 400.009 153 413.209 172.8 410.409C192.6 407.609 196 402.109 196.2 402.109C196.4 402.109 205.6 405.309 210 409.809C210 409.809 208.5 396.309 210 390.209C210.2 390.209 201.2 398.309 196.3 400.009Z" fill="#013542"/>
<path d="M610.3 853.009C610.3 853.009 602.1 844.709 587.9 843.209C570 841.309 560 853.009 560 853.009C560 853.009 567 866.209 586.8 863.409C606.6 860.609 610 855.109 610.2 855.109C610.4 855.109 619.6 858.309 624 862.809C624 862.809 622.5 849.309 624 843.209C624.2 843.209 615.2 851.309 610.3 853.009Z" fill="#013542"/>
<path d="M706.3 102.009C706.3 102.009 698.1 93.7087 683.9 92.2087C666 90.3087 656 102.009 656 102.009C656 102.009 663 115.209 682.8 112.409C702.6 109.609 706 104.109 706.2 104.109C706.4 104.109 715.6 107.309 720 111.809C720 111.809 718.5 98.3087 720 92.2087C720.2 92.2087 711.2 100.309 706.3 102.009Z" fill="#013542"/>
<path d="M1094.7 1012.11C1094.7 1012.11 1102.9 1003.73 1117.1 1002.21C1135 1000.29 1145 1012.11 1145 1012.11C1145 1012.11 1138 1025.43 1118.2 1022.61C1098.4 1019.78 1095 1014.23 1094.8 1014.23C1094.6 1014.23 1085.4 1017.46 1081 1022C1081 1022 1082.5 1008.37 1081 1002.21C1080.8 1002.21 1089.8 1010.39 1094.7 1012.11Z" fill="#013542"/>
<path d="M998.703 264.106C998.703 264.106 1006.9 255.725 1021.1 254.211C1039 252.292 1049 264.106 1049 264.106C1049 264.106 1042 277.433 1022.2 274.606C1002.4 271.779 999.003 266.226 998.803 266.226C998.603 266.226 989.403 269.457 985.003 274.001C985.003 274.001 986.503 260.37 985.003 254.211C984.803 254.211 993.803 262.389 998.703 264.106Z" fill="#013542"/>
<path d="M765.703 1262.11C765.703 1262.11 773.902 1253.73 788.101 1252.21C806.001 1250.29 816 1262.11 816 1262.11C816 1262.11 809 1275.43 789.201 1272.61C769.402 1269.78 766.003 1264.23 765.803 1264.23C765.603 1264.23 756.403 1267.46 752.003 1272C752.003 1272 753.503 1258.37 752.003 1252.21C751.803 1252.21 760.803 1260.39 765.703 1262.11Z" fill="#013542"/>
<path d="M822.703 726.106C822.703 726.106 830.902 717.725 845.101 716.211C863.001 714.292 873 726.106 873 726.106C873 726.106 866 739.433 846.201 736.606C826.402 733.779 823.003 728.226 822.803 728.226C822.603 728.226 813.403 731.457 809.003 736.001C809.003 736.001 810.503 722.37 809.003 716.211C808.803 716.211 817.803 724.389 822.703 726.106Z" fill="#013542"/>
<path d="M332.703 1391.11C332.703 1391.11 340.902 1382.73 355.101 1381.21C373.001 1379.29 383 1391.11 383 1391.11C383 1391.11 376 1404.43 356.201 1401.61C336.402 1398.78 333.003 1393.23 332.803 1393.23C332.603 1393.23 323.403 1396.46 319.003 1401C319.003 1401 320.503 1387.37 319.003 1381.21C318.803 1381.21 327.803 1389.39 332.703 1391.11Z" fill="#013542"/>
<path d="M605.703 1328.11C605.703 1328.11 613.902 1319.73 628.101 1318.21C646.001 1316.29 656 1328.11 656 1328.11C656 1328.11 649 1341.43 629.201 1338.61C609.402 1335.78 606.003 1330.23 605.803 1330.23C605.603 1330.23 596.403 1333.46 592.003 1338C592.003 1338 593.503 1324.37 592.003 1318.21C591.803 1318.21 600.803 1326.39 605.703 1328.11Z" fill="#013542"/>
<path d="M610.3 921.009C610.3 921.009 602.1 912.709 587.9 911.209C570 909.309 560 921.009 560 921.009C560 921.009 567 934.209 586.8 931.409C606.6 928.609 610 923.109 610.2 923.109C610.4 923.109 619.6 926.309 624 930.809C624 930.809 622.5 917.309 624 911.209C624.2 911.209 615.2 919.309 610.3 921.009Z" fill="#013542"/>
<path d="M1099.3 42.0087C1099.3 42.0087 1091.1 33.7087 1076.9 32.2087C1059 30.3087 1049 42.0087 1049 42.0087C1049 42.0087 1056 55.2087 1075.8 52.4087C1095.6 49.6087 1099 44.1087 1099.2 44.1087C1099.4 44.1087 1108.6 47.3087 1113 51.8087C1113 51.8087 1111.5 38.3087 1113 32.2087C1113.2 32.2087 1104.2 40.3087 1099.3 42.0087Z" fill="#013542"/>
<path d="M770.3 228.009C770.3 228.009 762.1 219.709 747.9 218.209C730 216.309 720 228.009 720 228.009C720 228.009 727 241.209 746.8 238.409C766.6 235.609 770 230.109 770.2 230.109C770.4 230.109 779.6 233.309 784 237.809C784 237.809 782.5 224.309 784 218.209C784.2 218.209 775.2 226.309 770.3 228.009Z" fill="#013542"/>
<path d="M524.3 329.009C524.3 329.009 516.1 320.709 501.9 319.209C484 317.309 474 329.009 474 329.009C474 329.009 481 342.209 500.8 339.409C520.6 336.609 524 331.109 524.2 331.109C524.4 331.109 533.6 334.309 538 338.809C538 338.809 536.5 325.309 538 319.209C538.2 319.209 529.2 327.309 524.3 329.009Z" fill="#013542"/>
<path d="M241.3 716.009C241.3 716.009 233.1 707.709 218.9 706.209C201 704.309 191 716.009 191 716.009C191 716.009 198 729.209 217.8 726.409C237.6 723.609 241 718.109 241.2 718.109C241.4 718.109 250.6 721.309 255 725.809C255 725.809 253.5 712.309 255 706.209C255.2 706.209 246.2 714.309 241.3 716.009Z" fill="#013542"/>
</g>
</svg>
