<svg width="1440" height="1146" viewBox="0 0 1440 1146" fill="none" xmlns="http://www.w3.org/2000/svg">
<g opacity="0.1">
<path d="M0 1146L1440 0H893.468L0 711.052V1146Z" fill="url(#paint0_linear_105_1991)" fill-opacity="0.8"/>
<path d="M0 1038.56L1305 0H1130.96L0 900.06V1038.56Z" fill="url(#paint1_linear_105_1991)" fill-opacity="0.8"/>
<path d="M550.028 0L0 437.731V620.641L779.862 0H550.028Z" fill="url(#paint2_linear_105_1991)" fill-opacity="0.8"/>
<path d="M889.972 1146L1440 708.268V525.358L660.137 1146H889.972Z" fill="url(#paint3_linear_105_1991)" fill-opacity="0.8"/>
<path d="M412.097 1146L1440 327.961V84.5587L106.251 1146H412.097Z" fill="url(#paint4_linear_105_1991)" fill-opacity="0.8"/>
<path d="M1440 444.033V387.47L486.875 1146H557.949L1440 444.033Z" fill="url(#paint5_linear_105_1991)" fill-opacity="0.8"/>
</g>
<defs>
<linearGradient id="paint0_linear_105_1991" x1="-136.63" y1="1037.26" x2="980.123" y2="-365.985" gradientUnits="userSpaceOnUse">
<stop stop-color="white" stop-opacity="0"/>
<stop offset="1" stop-color="white"/>
</linearGradient>
<linearGradient id="paint1_linear_105_1991" x1="-43.5109" y1="1003.94" x2="968.552" y2="-267.762" gradientUnits="userSpaceOnUse">
<stop stop-color="white" stop-opacity="0"/>
<stop offset="1" stop-color="white"/>
</linearGradient>
<linearGradient id="paint2_linear_105_1991" x1="-57.4574" y1="574.919" x2="547.349" y2="-185.047" gradientUnits="userSpaceOnUse">
<stop stop-color="white" stop-opacity="0"/>
<stop offset="1" stop-color="white"/>
</linearGradient>
<linearGradient id="paint3_linear_105_1991" x1="1497.46" y1="571.08" x2="892.651" y2="1331.05" gradientUnits="userSpaceOnUse">
<stop stop-color="white"/>
<stop offset="1" stop-color="white" stop-opacity="0"/>
</linearGradient>
<linearGradient id="paint4_linear_105_1991" x1="182.725" y1="1206.85" x2="1217.06" y2="-92.8451" gradientUnits="userSpaceOnUse">
<stop stop-color="white" stop-opacity="0"/>
<stop offset="1" stop-color="white"/>
</linearGradient>
<linearGradient id="paint5_linear_105_1991" x1="504.623" y1="1160.14" x2="1243.81" y2="231.319" gradientUnits="userSpaceOnUse">
<stop stop-color="white" stop-opacity="0"/>
<stop offset="1" stop-color="white"/>
</linearGradient>
</defs>
</svg>
