<svg width="216" height="752" viewBox="0 0 216 752" fill="none" xmlns="http://www.w3.org/2000/svg">
<path d="M169.662 77.1281H45.6147V675.692H169.662V77.1281Z" fill="#009E9F"/>
<path d="M81.0467 125.151H63.2961V627.601H81.0467V125.151Z" fill="#008787"/>
<path d="M116.479 125.151H98.7283V627.601H116.479V125.151Z" fill="#008787"/>
<path d="M151.98 125.151H134.229V627.601H151.98V125.151Z" fill="#008787"/>
<path d="M181.909 77.1281H33.2996V104.579H181.909V77.1281Z" fill="#009E9F"/>
<path d="M215.277 0.827881H0V38.9434H215.277V0.827881Z" fill="#009E9F"/>
<path d="M181.908 77.1278H33.2994L0 38.9435H215.277L181.908 77.1278Z" fill="#009E9F"/>
<path d="M181.909 648.172H33.2996V675.624H181.909V648.172Z" fill="#009E9F"/>
<path d="M215.277 713.807H0V751.923H215.277V713.807Z" fill="#009E9F"/>
<path d="M33.2994 675.692H181.908L215.277 713.807H0L33.2994 675.692Z" fill="#009E9F"/>
<path d="M215.277 0.827881H0V19.8856H215.277V0.827881Z" fill="#008787"/>
</svg>
