<svg width="350" height="493" viewBox="0 0 350 493" fill="none" xmlns="http://www.w3.org/2000/svg">
<path d="M334.813 8.82161H15.1885V45.3813H334.813V8.82161Z" fill="#00A1BC"/>
<path d="M340.993 45.3359H8.9541V54.1575H340.993V45.3359Z" fill="#00AFC1"/>
<path d="M340.993 0H8.9541V8.82162H340.993V0Z" fill="#00AFC1"/>
<path d="M334.813 8.82161H15.1885V13.1869H334.813V8.82161Z" fill="#009AAA"/>
<path d="M340.499 449.902H9.50684V466.091H340.499V449.902Z" fill="#00A1BC"/>
<path d="M350 466.091H0V492.283H350V466.091Z" fill="#008391"/>
<path d="M85.6211 449.902H18.7314L24.7338 62.4789H79.6188L85.6211 449.902Z" fill="#0098A0"/>
<path d="M331.262 449.902H264.372L270.42 62.4789H325.259L331.262 449.902Z" fill="#0098A0"/>
<path d="M85.393 54.1575H18.958V64.4797H85.393V54.1575Z" fill="#00A1BC"/>
<path d="M331.038 54.1574H264.604V64.4797H331.038V54.1574Z" fill="#00A1BC"/>
</svg>
