<svg width="228" height="94" viewBox="0 0 228 94" fill="none" xmlns="http://www.w3.org/2000/svg">
<path d="M0.371277 58.3142C0.371277 58.3142 33.1506 30.5314 93.6662 35.8918C93.6662 35.8918 95.9223 16.6073 116.426 0.918121C116.426 0.918121 106.871 20.6603 119.611 34.519C119.611 34.519 138.257 44.3901 166.922 47.528C195.587 50.6658 199.701 50.6658 207.398 42.1675C215.162 33.6693 216.954 26.0208 222.859 22.4253C222.859 22.4253 214.697 43.9325 215.096 52.8884C215.096 52.8884 221.466 67.6624 227.371 74.8532C227.371 74.8532 201.427 61.3867 191.407 59.1641C181.387 56.9415 163.206 60.9291 145.887 64.5245C128.569 68.12 113.838 71.7154 113.838 71.7154C113.838 71.7154 120.872 82.8939 126.777 83.3515C126.777 83.3515 99.5054 84.2667 89.0213 75.703C89.0213 75.703 82.1868 75.703 77.2102 80.6059C72.2336 85.5087 63.5411 93.1572 63.5411 93.1572C63.5411 93.1572 61.285 82.3709 64.9345 77.0104C64.9345 77.0104 42.1748 76.5528 24.8562 71.1924C7.67031 65.9627 0.371277 58.3142 0.371277 58.3142Z" fill="#00544E"/>
</svg>
