<svg width="1337" height="1128" viewBox="0 0 1337 1128" fill="none" xmlns="http://www.w3.org/2000/svg">
<path d="M1229.33 1005.93H107.604V1095.99H1229.33V1005.93Z" fill="#008787"/>
<path d="M1337 1057.81H0V1127.16H1337V1057.81Z" fill="#009E9F"/>
<path d="M1336.93 254.768L668.466 0L0 254.768V344.828H1336.93V254.768Z" fill="#009E9F"/>
<path d="M169.662 421.128H45.6147V1019.69H169.662V421.128Z" fill="#009E9F"/>
<path d="M81.0467 469.151H63.2961V971.601H81.0467V469.151Z" fill="#008787"/>
<path d="M116.479 469.151H98.7283V971.601H116.479V469.151Z" fill="#008787"/>
<path d="M151.98 469.151H134.229V971.601H151.98V469.151Z" fill="#008787"/>
<path d="M181.909 421.128H33.2996V448.579H181.909V421.128Z" fill="#009E9F"/>
<path d="M215.277 344.828H0V382.943H215.277V344.828Z" fill="#009E9F"/>
<path d="M181.908 421.128H33.2994L0 382.943H215.277L181.908 421.128Z" fill="#009E9F"/>
<path d="M181.909 992.172H33.2996V1019.62H181.909V992.172Z" fill="#009E9F"/>
<path d="M215.277 1057.81H0V1095.92H215.277V1057.81Z" fill="#009E9F"/>
<path d="M33.2994 1019.69H181.908L215.277 1057.81H0L33.2994 1019.69Z" fill="#009E9F"/>
<path d="M543.524 421.128H419.477V1019.69H543.524V421.128Z" fill="#009E9F"/>
<path d="M454.977 469.151H437.227V971.601H454.977V469.151Z" fill="#008787"/>
<path d="M490.41 469.151H472.66V971.601H490.41V469.151Z" fill="#008787"/>
<path d="M525.842 469.151H508.092V971.601H525.842V469.151Z" fill="#008787"/>
<path d="M555.84 421.128H407.23V448.579H555.84V421.128Z" fill="#009E9F"/>
<path d="M589.139 344.828H373.862V382.943H589.139V344.828Z" fill="#009E9F"/>
<path d="M555.84 421.128H407.231L373.862 382.943H589.139L555.84 421.128Z" fill="#009E9F"/>
<path d="M555.84 992.172H407.23V1019.62H555.84V992.172Z" fill="#009E9F"/>
<path d="M589.139 1057.81H373.862V1095.92H589.139V1057.81Z" fill="#009E9F"/>
<path d="M407.231 1019.69H555.84L589.139 1057.81H373.862L407.231 1019.69Z" fill="#009E9F"/>
<path d="M917.455 421.128H793.407V1019.69H917.455V421.128Z" fill="#009E9F"/>
<path d="M828.84 469.151H811.089V971.601H828.84V469.151Z" fill="#008787"/>
<path d="M864.272 469.151H846.521V971.601H864.272V469.151Z" fill="#008787"/>
<path d="M899.773 469.151H882.022V971.601H899.773V469.151Z" fill="#008787"/>
<path d="M929.701 421.128H781.092V448.579H929.701V421.128Z" fill="#009E9F"/>
<path d="M963.069 344.828H747.793V382.943H963.069V344.828Z" fill="#009E9F"/>
<path d="M929.701 421.128H781.092L747.793 382.943H963.069L929.701 421.128Z" fill="#009E9F"/>
<path d="M929.701 992.172H781.092V1019.62H929.701V992.172Z" fill="#009E9F"/>
<path d="M963.069 1057.81H747.793V1095.92H963.069V1057.81Z" fill="#009E9F"/>
<path d="M781.092 1019.69H929.701L963.069 1057.81H747.793L781.092 1019.69Z" fill="#009E9F"/>
<path d="M1291.32 421.128H1167.27V1019.69H1291.32V421.128Z" fill="#009E9F"/>
<path d="M1202.77 469.151H1185.02V971.601H1202.77V469.151Z" fill="#008787"/>
<path d="M1238.2 469.151H1220.45V971.601H1238.2V469.151Z" fill="#008787"/>
<path d="M1273.63 469.151H1255.88V971.601H1273.63V469.151Z" fill="#008787"/>
<path d="M1303.63 421.128H1155.02V448.579H1303.63V421.128Z" fill="#009E9F"/>
<path d="M1336.93 344.828H1121.65V382.943H1336.93V344.828Z" fill="#009E9F"/>
<path d="M1303.63 421.128H1155.02L1121.65 382.943H1336.93L1303.63 421.128Z" fill="#009E9F"/>
<path d="M1303.63 992.172H1155.02V1019.62H1303.63V992.172Z" fill="#009E9F"/>
<path d="M1336.93 1057.81H1121.65V1095.92H1336.93V1057.81Z" fill="#009E9F"/>
<path d="M1155.02 1019.69H1303.63L1336.93 1057.81H1121.65L1155.02 1019.69Z" fill="#009E9F"/>
<path d="M1124.48 254.768L668.465 80.9784L212.456 254.768H1124.48Z" fill="#008787"/>
<path d="M215.277 344.828H0V363.886H215.277V344.828Z" fill="#008787"/>
<path d="M589.139 344.828H373.862V363.886H589.139V344.828Z" fill="#008787"/>
<path d="M963.069 344.828H747.793V363.886H963.069V344.828Z" fill="#008787"/>
<path d="M1336.93 344.828H1121.65V363.886H1336.93V344.828Z" fill="#008787"/>
</svg>
