<svg width="189" height="191" viewBox="0 0 189 191" fill="none" xmlns="http://www.w3.org/2000/svg">
<path d="M186.001 76.4464C192.046 62.4599 187.083 49.2447 187.083 49.2447C184.386 58.7879 175.094 67.6331 175.094 67.6331C177.086 68.1022 179.818 65.9871 181.554 64.373C177.8 70.5815 170.403 80.7672 160.389 84.7381C149.881 88.9062 139.706 84.269 133.382 80.0325C136.225 77.1334 136.581 73.859 136.581 73.859C136.581 73.859 129.639 75.1583 126.059 64.1869C126.059 64.1869 128.04 66.5405 131.233 67.8843C139.104 56.2626 149.811 44.407 158.484 35.5842C155.922 35.0371 153.798 35.5031 153.798 35.5031C158.776 31.0153 163.957 31.8009 166.496 32.6056C166.994 32.7344 167.502 32.93 168.014 33.2083C168.063 33.2337 168.09 33.2464 168.09 33.2464C168.09 33.2464 178.532 11.493 182.008 7.05135C177.605 10.5579 156.034 21.0888 156.034 21.0888C158.346 25.3046 155.143 29.293 155.143 29.293L155.168 29.3185C145.656 38.9476 132.046 51.5649 119.055 60.0299C117.209 58.4381 115.735 56.1417 115.768 52.8657C115.768 52.8657 112.521 53.2267 109.647 56.094C105.446 49.7154 100.848 39.4533 104.981 28.8557C108.918 18.7558 119.017 11.2958 125.173 7.50935C123.573 9.26025 121.476 12.0162 121.941 14.0247C121.941 14.0247 130.711 4.65322 140.173 1.93384C140.173 1.93384 127.07 -3.07237 113.202 3.02477C113.202 3.02477 116.531 2.95956 120.996 3.97256C112.668 8.62731 97.8176 19.0103 95.2521 34.9258C93.1221 48.1315 99.6656 60.3543 105.372 68.1404C105.432 70.2777 105.856 72.1431 105.832 74.2327L101.797 78.3023L103.45 79.9689L8.00101 176.235L8.12998 176.365C5.98713 176.05 3.72933 176.725 2.08033 178.388C-0.693551 181.185 -0.69339 185.721 2.08049 188.52C4.85437 191.317 9.35168 191.317 12.1256 188.52C13.7744 186.856 14.443 184.579 14.1315 182.418L14.2605 182.548L107.129 88.884L106.58 83.1256L109.71 86.2823L111.362 87.9489L115.397 83.8794C117.469 83.8555 119.319 84.2833 121.438 84.3437C129.158 90.099 141.277 96.6986 154.371 94.5501C170.151 91.9628 180.446 76.9855 185.061 68.5856C186.066 73.0893 186.001 76.4464 186.001 76.4464Z" fill="#162D47"/>
</svg>
