<svg width="1491" height="403" viewBox="0 0 1491 403" fill="none" xmlns="http://www.w3.org/2000/svg">
<path d="M56.9724 0C56.1015 8.265 55.8671 16.7283 56.1685 24.9933C56.47 33.3244 57.3074 41.4572 58.4798 49.4577C60.858 65.3926 64.4755 80.4019 68.495 95.0805C72.548 109.759 76.9695 124.306 80.788 139.976C84.6066 155.58 87.8891 172.441 89.162 190.822C89.7984 200.013 89.8654 209.468 89.3965 218.725C88.9276 227.982 87.9896 237.04 86.7503 245.768C84.2716 263.29 80.721 279.423 77.3379 295.027C73.9548 310.566 70.6387 325.641 68.4615 340.32C66.2508 354.998 65.3129 369.148 66.1503 382.174L44.1435 384.62C44.0765 374.305 44.7129 364.189 45.8183 354.602C46.9236 345.014 48.498 335.956 50.3067 327.426C53.9243 310.367 58.3458 295.16 62.4993 280.547C66.6863 265.869 70.7057 251.719 73.6534 237.172C76.601 222.626 78.3763 207.815 78.1418 192.608C77.9744 177.334 75.9311 161.663 73.1175 146.257C70.3373 130.785 66.7532 115.512 63.4371 99.7089C60.1545 83.9062 57.2404 67.5746 55.6996 50.6479C54.9292 42.1846 54.5272 33.5889 54.6947 25.0594C54.9627 16.5299 55.6326 8.00052 56.9724 0Z" fill="#004A5C"/>
<path d="M13.2935 43.5728C20.1602 52.1684 27.1273 60.8301 33.1566 72.2689C36.1712 77.9552 38.9179 84.3689 41.1621 91.576C43.4063 98.7169 45.1816 106.717 46.086 115.379C46.9904 123.975 46.9904 132.901 46.354 141.497C45.751 150.092 44.5787 158.357 43.1719 166.292C40.3247 182.227 36.6067 196.707 34.2285 210.989C32.9891 218.13 32.1852 225.138 31.7833 232.147C31.3813 239.222 31.4148 246.363 31.7833 253.504C32.5202 267.786 34.6974 281.869 37.7455 295.159C40.7937 308.45 44.8132 321.211 49.3351 333.641C53.8571 346.072 58.8815 358.172 64.0398 370.602L46.22 396.191C41.7985 382.636 37.2431 368.751 33.0561 353.94C28.8691 339.195 25.0841 323.525 22.3039 306.797C19.5908 290.068 17.9159 272.48 18.0164 254.628C18.0834 245.702 18.5524 236.709 19.5907 227.915C20.5956 219.121 22.1699 210.592 24.0122 202.922C27.6633 187.384 32.1852 173.895 35.5348 160.076C37.2431 153.134 38.6499 146.125 39.5878 138.918C40.5592 131.711 40.9611 124.371 40.6262 117.032C40.2912 109.759 39.1858 102.42 37.511 95.5432C35.8362 88.6006 33.659 82.0547 31.1133 76.0377C26.022 63.8055 19.6577 53.623 13.2935 43.5728Z" fill="#004A5C"/>
<path d="M3.24506 133.298C15.3036 137.067 26.9602 150.026 35.0997 169.796C39.2197 179.714 42.2343 191.219 44.5455 203.121C46.7897 215.022 48.3305 227.32 49.5699 239.42C50.8427 251.52 51.8141 263.422 53.02 275.059C54.1923 286.762 55.4317 298.4 56.7715 309.971C59.4512 333.179 62.5328 356.122 65.9159 378.801L44.378 387.926C42.6697 363.594 41.3299 339.196 40.4255 314.797C39.9566 302.631 39.5881 290.399 39.3201 278.233C39.0187 266.001 38.9517 253.901 38.6167 242.198C38.3153 230.428 37.7458 218.923 36.5735 207.749C35.3676 196.641 33.4919 185.797 30.5442 176.011C24.7159 156.44 14.9016 140.637 3.24506 133.298Z" fill="#004A5C"/>
<path d="M103.666 256.215C103.666 253.306 103.565 250.396 103.532 247.553C103.264 236.048 102.728 224.676 102.058 213.369C100.751 190.822 99.0097 168.606 98.0718 146.125C97.1674 168.606 97.0669 191.351 96.531 213.7C96.263 224.874 95.8946 236.048 95.2582 246.958C95.0907 249.669 94.9232 252.446 94.7222 255.157L94.4208 259.19C94.3203 260.513 94.1528 261.769 94.0188 263.025C93.5499 268.116 92.813 273.075 91.9756 277.902C90.2673 287.556 87.8221 296.548 84.841 304.879C81.8598 313.21 78.3427 320.814 74.5242 327.955C70.7057 335.096 66.5522 341.708 62.1642 347.989C59.719 351.494 57.2403 354.866 54.6946 358.172C41.8657 343.229 30.1756 323.459 20.8303 299.325C15.4039 285.308 10.748 269.769 7.26443 253.107C3.74736 236.445 1.36915 218.593 0.397767 200.145C-0.473126 218.593 0.0962796 237.635 2.00555 256.281C3.91481 274.927 7.13044 293.308 11.4849 310.698C19.4234 342.568 31.0465 371.33 45.1483 395.067V401.613H65.9827V393.48C68.9974 388.058 71.9785 382.504 74.8927 376.752C79.1467 368.354 83.2332 359.362 86.9847 349.709C90.7362 340.055 94.1193 329.674 96.8659 318.566C99.6126 307.458 101.689 295.556 102.761 283.39C103.264 277.307 103.666 271.224 103.699 265.075C103.733 263.554 103.766 262.033 103.766 260.579L103.666 256.215Z" fill="#004A5C"/>
<path d="M551.972 198C551.102 202.198 550.867 206.497 551.168 210.695C551.47 214.927 552.307 219.058 553.48 223.122C555.858 231.216 559.475 238.84 563.495 246.296C567.548 253.752 571.969 261.141 575.788 269.101C579.607 277.027 582.889 285.592 584.162 294.929C584.798 299.597 584.865 304.4 584.396 309.102C583.928 313.804 582.99 318.405 581.75 322.838C579.272 331.739 575.721 339.933 572.338 347.86C568.955 355.752 565.639 363.41 563.461 370.866C561.251 378.322 560.313 385.509 561.15 392.126L539.143 393.368C539.076 388.129 539.713 382.99 540.818 378.121C541.924 373.251 543.498 368.649 545.307 364.317C548.924 355.652 553.346 347.927 557.499 340.504C561.686 333.048 565.706 325.861 568.653 318.472C571.601 311.083 573.376 303.56 573.142 295.835C572.974 288.077 570.931 280.117 568.117 272.292C565.337 264.433 561.753 256.674 558.437 248.647C555.154 240.62 552.24 232.325 550.7 223.727C549.929 219.428 549.527 215.062 549.695 210.729C549.963 206.396 550.633 202.064 551.972 198Z" fill="#004A5C"/>
<path d="M508.294 220.133C515.16 224.499 522.127 228.899 528.157 234.709C531.171 237.597 533.918 240.855 536.162 244.516C538.406 248.143 540.182 252.207 541.086 256.607C541.99 260.973 541.99 265.507 541.354 269.873C540.751 274.24 539.579 278.438 538.172 282.468C535.325 290.562 531.607 297.917 529.228 305.172C527.989 308.799 527.185 312.359 526.783 315.919C526.381 319.513 526.415 323.14 526.783 326.768C527.52 334.022 529.697 341.176 532.746 347.927C535.794 354.677 539.813 361.16 544.335 367.474C548.857 373.788 553.881 379.934 559.04 386.248L541.22 399.246C536.799 392.361 532.243 385.308 528.056 377.785C523.869 370.295 520.084 362.335 517.304 353.838C514.591 345.341 512.916 336.407 513.016 327.339C513.083 322.805 513.552 318.237 514.591 313.77C515.596 309.303 517.17 304.971 519.012 301.075C522.663 293.182 527.185 286.33 530.535 279.311C532.243 275.784 533.65 272.224 534.588 268.564C535.559 264.903 535.961 261.175 535.626 257.447C535.291 253.752 534.186 250.024 532.511 246.531C530.836 243.005 528.659 239.68 526.113 236.623C521.022 230.41 514.658 225.238 508.294 220.133Z" fill="#004A5C"/>
<path d="M498.245 265.709C510.304 267.623 521.96 274.206 530.1 284.248C534.22 289.286 537.234 295.13 539.545 301.176C541.79 307.221 543.331 313.468 544.57 319.614C545.843 325.76 546.814 331.806 548.02 337.717C549.192 343.662 550.432 349.573 551.772 355.45C554.451 367.239 557.533 378.893 560.916 390.413L539.378 395.048C537.67 382.688 536.33 370.295 535.426 357.902C534.957 351.722 534.588 345.509 534.32 339.329C534.019 333.116 533.952 326.969 533.617 321.025C533.315 315.047 532.746 309.203 531.573 303.527C530.368 297.884 528.492 292.376 525.544 287.405C519.716 277.464 509.902 269.437 498.245 265.709Z" fill="#004A5C"/>
<path d="M598.666 328.144C598.666 326.667 598.565 325.189 598.532 323.745C598.264 317.901 597.728 312.124 597.058 306.381C595.751 294.928 594.01 283.643 593.072 272.224C592.167 283.643 592.067 295.197 591.531 306.549C591.263 312.225 590.895 317.901 590.258 323.442C590.091 324.819 589.923 326.23 589.722 327.607L589.421 329.656C589.32 330.328 589.153 330.966 589.019 331.604C588.55 334.19 587.813 336.709 586.976 339.161C585.267 344.064 582.822 348.632 579.841 352.864C576.86 357.095 573.343 360.958 569.524 364.585C565.706 368.212 561.552 371.571 557.164 374.762C554.719 376.542 552.24 378.254 549.695 379.934C536.866 372.343 525.176 362.301 515.83 350.042C510.404 342.922 505.748 335.03 502.264 326.566C498.747 318.102 496.369 309.034 495.398 299.664C494.527 309.034 495.096 318.707 497.006 328.178C498.915 337.649 502.13 346.986 506.485 355.819C514.423 372.007 526.047 386.617 540.148 398.675V402H560.983V397.869C563.997 395.114 566.979 392.293 569.893 389.371C574.147 385.106 578.233 380.538 581.985 375.635C585.736 370.731 589.119 365.458 591.866 359.816C594.613 354.173 596.689 348.128 597.761 341.948C598.264 338.858 598.666 335.768 598.699 332.645C598.733 331.872 598.766 331.1 598.766 330.361L598.666 328.144Z" fill="#004A5C"/>
<path d="M1101.97 0C1101.1 8.265 1100.87 16.7283 1101.17 24.9933C1101.47 33.3244 1102.31 41.4572 1103.48 49.4577C1105.86 65.3926 1109.48 80.4019 1113.49 95.0805C1117.55 109.759 1121.97 124.306 1125.79 139.976C1129.61 155.58 1132.89 172.441 1134.16 190.822C1134.8 200.013 1134.87 209.468 1134.4 218.725C1133.93 227.982 1132.99 237.04 1131.75 245.768C1129.27 263.29 1125.72 279.423 1122.34 295.027C1118.95 310.566 1115.64 325.641 1113.46 340.32C1111.25 354.998 1110.31 369.148 1111.15 382.174L1089.14 384.62C1089.08 374.305 1089.71 364.189 1090.82 354.602C1091.92 345.014 1093.5 335.956 1095.31 327.426C1098.92 310.367 1103.35 295.16 1107.5 280.547C1111.69 265.869 1115.71 251.719 1118.65 237.172C1121.6 222.626 1123.38 207.815 1123.14 192.608C1122.97 177.334 1120.93 161.663 1118.12 146.257C1115.34 130.785 1111.75 115.512 1108.44 99.7089C1105.15 83.9062 1102.24 67.5746 1100.7 50.6479C1099.93 42.1846 1099.53 33.5889 1099.69 25.0594C1099.96 16.5299 1100.63 8.00052 1101.97 0Z" fill="#004A5C"/>
<path d="M1058.29 43.5728C1065.16 52.1684 1072.13 60.8301 1078.16 72.2689C1081.17 77.9552 1083.92 84.3689 1086.16 91.576C1088.41 98.7169 1090.18 106.717 1091.09 115.379C1091.99 123.975 1091.99 132.901 1091.35 141.497C1090.75 150.092 1089.58 158.357 1088.17 166.292C1085.32 182.227 1081.61 196.707 1079.23 210.989C1077.99 218.13 1077.19 225.138 1076.78 232.147C1076.38 239.222 1076.41 246.363 1076.78 253.504C1077.52 267.786 1079.7 281.869 1082.75 295.159C1085.79 308.45 1089.81 321.211 1094.34 333.641C1098.86 346.072 1103.88 358.172 1109.04 370.602L1091.22 396.191C1086.8 382.636 1082.24 368.751 1078.06 353.94C1073.87 339.195 1070.08 323.525 1067.3 306.797C1064.59 290.068 1062.92 272.48 1063.02 254.628C1063.08 245.702 1063.55 236.709 1064.59 227.915C1065.6 219.121 1067.17 210.592 1069.01 202.922C1072.66 187.384 1077.19 173.895 1080.53 160.076C1082.24 153.134 1083.65 146.125 1084.59 138.918C1085.56 131.711 1085.96 124.371 1085.63 117.032C1085.29 109.759 1084.19 102.42 1082.51 95.5432C1080.84 88.6006 1078.66 82.0547 1076.11 76.0377C1071.02 63.8055 1064.66 53.623 1058.29 43.5728Z" fill="#004A5C"/>
<path d="M1048.25 133.298C1060.3 137.067 1071.96 150.026 1080.1 169.796C1084.22 179.714 1087.23 191.219 1089.55 203.121C1091.79 215.022 1093.33 227.32 1094.57 239.42C1095.84 251.52 1096.81 263.422 1098.02 275.059C1099.19 286.762 1100.43 298.4 1101.77 309.971C1104.45 333.179 1107.53 356.122 1110.92 378.801L1089.38 387.926C1087.67 363.594 1086.33 339.196 1085.43 314.797C1084.96 302.631 1084.59 290.399 1084.32 278.233C1084.02 266.001 1083.95 253.901 1083.62 242.198C1083.32 230.428 1082.75 218.923 1081.57 207.749C1080.37 196.641 1078.49 185.797 1075.54 176.011C1069.72 156.44 1059.9 140.637 1048.25 133.298Z" fill="#004A5C"/>
<path d="M1148.67 256.215C1148.67 253.306 1148.57 250.396 1148.53 247.553C1148.26 236.048 1147.73 224.676 1147.06 213.369C1145.75 190.822 1144.01 168.606 1143.07 146.125C1142.17 168.606 1142.07 191.351 1141.53 213.7C1141.26 224.874 1140.89 236.048 1140.26 246.958C1140.09 249.669 1139.92 252.446 1139.72 255.157L1139.42 259.19C1139.32 260.513 1139.15 261.769 1139.02 263.025C1138.55 268.116 1137.81 273.075 1136.98 277.902C1135.27 287.556 1132.82 296.548 1129.84 304.879C1126.86 313.21 1123.34 320.814 1119.52 327.955C1115.71 335.096 1111.55 341.708 1107.16 347.989C1104.72 351.494 1102.24 354.866 1099.69 358.172C1086.87 343.229 1075.18 323.459 1065.83 299.325C1060.4 285.308 1055.75 269.769 1052.26 253.107C1048.75 236.445 1046.37 218.593 1045.4 200.145C1044.53 218.593 1045.1 237.635 1047.01 256.281C1048.91 274.927 1052.13 293.308 1056.48 310.698C1064.42 342.568 1076.05 371.33 1090.15 395.067V401.613H1110.98V393.48C1114 388.058 1116.98 382.504 1119.89 376.752C1124.15 368.354 1128.23 359.362 1131.98 349.709C1135.74 340.055 1139.12 329.674 1141.87 318.566C1144.61 307.458 1146.69 295.556 1147.76 283.39C1148.26 277.307 1148.67 271.224 1148.7 265.075C1148.73 263.554 1148.77 262.033 1148.77 260.579L1148.67 256.215Z" fill="#004A5C"/>
<path d="M1489.61 271.814C1488.18 269.204 1485.4 268.523 1483.4 270.395C1482.96 270.793 1475.49 277.771 1469.58 289.572C1469.23 287.303 1469.27 284.976 1470.1 282.253C1470.92 279.473 1470.19 276.182 1468.14 274.764C1465.75 273.062 1462.84 274.537 1461.88 277.714C1459.02 287.132 1461.19 294.395 1462.75 299.671C1463.45 302.054 1464.06 304.096 1464.06 305.685C1464.01 307.501 1461.97 317.032 1455.89 330.138C1451.19 340.237 1443.19 354.364 1431.24 365.257C1430.81 365.655 1430.37 366.052 1429.94 366.449C1418.77 377.399 1406.95 384.434 1394.69 387.498C1403.08 382.902 1412.42 376.264 1422.25 366.562C1437.24 351.811 1448.19 333.656 1452.71 293.317C1453.84 283.331 1458.1 265.232 1474.05 255.814C1476.14 254.566 1477.36 251.502 1476.66 248.609C1475.84 245.261 1473.01 243.673 1470.62 245.091C1459.45 251.616 1452.89 261.715 1449.02 271.19C1448.02 261.318 1448.67 253.772 1451.15 250.027C1452.28 248.325 1452.76 245.999 1452.06 244.013C1450.58 239.645 1446.58 239.191 1444.5 242.254C1440.76 247.758 1439.2 256.211 1439.76 267.275C1440.24 276.58 1442.11 286.111 1443.76 292.919C1441.41 312.72 1437.54 326.28 1432.24 336.663C1432.72 327.812 1431.5 321.06 1431.37 320.493C1430.81 317.372 1428.37 315.5 1425.98 316.238C1423.59 316.975 1422.11 320.153 1422.68 323.273C1422.72 323.5 1426.33 344.038 1416.55 357.541C1411.21 362.761 1406.03 367.073 1401.12 370.534C1401.73 369.399 1402.34 368.264 1402.9 367.073C1402.95 367.016 1402.99 366.959 1402.99 366.903C1403.03 366.789 1403.08 366.733 1403.12 366.619C1406.29 359.868 1408.73 351.981 1411.42 342.677L1412.29 339.67C1413.81 334.45 1415.16 329.911 1416.42 325.94C1416.94 324.408 1417.59 322.592 1418.29 320.663C1418.68 319.585 1419.07 318.45 1419.51 317.259C1423.55 307.557 1428.24 302.508 1438.33 298.196C1440.54 297.231 1441.98 294.338 1441.5 291.388C1440.93 287.983 1438.24 285.998 1435.76 287.076C1432.72 288.381 1430.07 289.742 1427.68 291.274C1429.5 283.785 1430.37 276.863 1431.2 270.566C1432.76 258.594 1433.85 249.914 1440.11 243.332C1441.72 241.63 1442.41 238.68 1441.5 236.24C1440.2 232.666 1436.85 231.815 1434.68 234.084C1431.5 237.375 1429.24 241.006 1427.59 244.921C1426.68 236.411 1426.98 227.957 1428.5 220.354C1429.07 217.461 1427.98 214.284 1425.85 213.263C1423.33 212.014 1420.64 213.887 1419.94 217.177C1417.25 230.34 1417.59 244.921 1420.94 259.389C1422.16 264.552 1422.03 270.736 1421.12 277.204C1420.29 274.537 1419.38 272.268 1418.55 270.339C1417.77 268.466 1417.07 266.708 1416.9 265.63C1416.6 263.587 1415.55 261.772 1414.03 261.204C1410.38 259.843 1407.51 263.814 1408.16 267.899C1408.6 270.679 1409.64 273.175 1410.68 275.842C1413.73 283.218 1417.46 292.352 1410.6 313.685C1410.42 314.195 1410.34 314.763 1410.29 315.273C1409.64 317.032 1409.03 318.848 1408.38 320.72C1407.86 322.195 1407.42 323.557 1407.08 324.691C1407.03 324.918 1406.95 325.145 1406.9 325.315C1405.95 328.436 1404.95 331.84 1403.9 335.471L1403.69 336.209C1403.56 335.641 1403.47 335.017 1403.34 334.45C1402.73 331.216 1402.17 328.096 1401.82 325.429C1400.73 315.954 1402.38 308.522 1406.42 295.643C1407.29 292.863 1406.55 289.459 1404.47 288.04C1402.12 286.395 1399.25 287.813 1398.25 290.934C1396.17 297.515 1394.39 303.642 1393.39 309.883C1388.95 305.288 1384.82 304.21 1384.52 304.096C1382.09 303.472 1379.78 305.572 1379.3 308.692C1378.83 311.869 1380.43 314.876 1382.82 315.5C1382.91 315.5 1389.47 317.486 1393.08 327.925C1393.47 330.932 1394.04 333.996 1394.65 337.23C1396.3 345.967 1397.99 354.932 1395.25 360.719C1395.12 361.002 1394.99 361.343 1394.91 361.626C1390.73 370.08 1384.91 376.151 1374 380.973C1377.78 372.973 1380.09 363.953 1380.82 354.081C1382 338.081 1378.65 324.578 1377.13 319.528C1376.87 318.677 1376.61 317.883 1376.35 317.032C1373.48 306.82 1376.74 300.579 1381.56 291.444C1382.91 288.891 1384.3 286.168 1385.61 283.274C1396.78 260.694 1409.55 250.027 1409.68 249.97C1411.77 248.268 1412.42 244.694 1411.12 241.971C1409.81 239.247 1407.08 238.396 1404.99 240.098C1404.6 240.439 1398.78 245.261 1391.43 255.133C1393.3 234.141 1403.73 224.269 1404.21 223.872C1406.25 222.057 1406.77 218.425 1405.34 215.759C1403.95 213.092 1401.17 212.411 1399.12 214.284C1398.64 214.681 1390.91 221.83 1386.04 236.467C1384.69 233.063 1383.65 230.227 1383.52 226.539C1383.39 223.305 1381.3 220.865 1378.83 221.035C1376.35 221.205 1374.48 223.929 1374.61 227.163C1374.87 233.574 1376.65 238.169 1378.39 242.595C1380.3 247.361 1382.09 251.899 1382.17 259.672C1382 266.537 1380.3 272.041 1378 277.147C1377.39 278.338 1376.83 279.587 1376.22 280.835C1375.52 282.196 1374.83 283.501 1374.13 284.863C1372.35 288.324 1370.44 291.898 1369 295.813C1366.31 286.338 1364.22 274.367 1364.4 256.325C1364.53 240.212 1371.26 224.893 1377.48 219.844C1379.22 218.425 1380.17 215.702 1379.56 213.149C1378.65 209.348 1375.39 207.929 1372.96 209.858C1367.13 214.511 1362.14 223.418 1358.96 233.858C1358.18 232.326 1357.4 230.964 1356.66 229.659C1353.88 224.78 1352.53 222.283 1353.1 218.142C1353.4 215.759 1352.66 213.319 1351.05 212.128C1348.14 209.972 1344.84 212.241 1344.32 216.099C1343.06 225.404 1346.49 231.418 1349.53 236.638C1352.53 241.914 1355.4 246.85 1355.49 256.382C1355.22 286.565 1360.92 301.997 1365.53 314.422C1366.44 316.919 1367.31 319.245 1368.09 321.571C1368.31 322.309 1368.52 323.103 1368.83 323.897C1370.65 330.025 1378.09 359.47 1361.96 382.562C1352.75 363.158 1353.18 341.826 1353.66 321.174C1353.75 316.748 1353.88 312.21 1353.83 307.784V307.727C1353.79 301.6 1353.75 295.926 1353.75 290.877C1353.66 263.303 1353.62 249.29 1346.84 238.453C1345.32 236.014 1342.58 235.276 1340.62 237.092C1338.49 239.077 1338.14 242.992 1339.8 245.602C1343.23 250.935 1344.32 258.708 1344.66 271.417C1340.53 263.757 1335.01 256.609 1328.19 250.141C1320.11 242.425 1315.72 235.446 1312.67 216.894C1312.2 213.943 1310.11 211.731 1307.81 212.071C1305.15 212.468 1303.37 215.702 1303.89 219.05C1307.46 241.176 1313.59 250.651 1322.93 259.559C1332.97 269.09 1344.92 285.26 1344.97 307.784V307.841C1344.97 312.096 1344.88 316.351 1344.79 320.89C1344.62 328.323 1344.45 336.095 1344.75 343.982C1340.88 338.648 1337.84 336.038 1337.58 335.812C1335.49 334.053 1332.75 334.847 1331.41 337.514C1330.06 340.237 1330.67 343.811 1332.71 345.57C1332.8 345.684 1343.14 354.648 1349.1 374.619V374.675C1349.88 377.456 1350.79 380.179 1351.83 382.902C1338.58 378.25 1331.93 372.066 1327.1 362.931C1327.02 362.591 1326.89 362.307 1326.71 362.024C1323.89 356.35 1325.41 347.272 1326.89 338.535C1327.45 335.301 1327.93 332.18 1328.28 329.174C1330.23 323.103 1333.28 319.812 1335.49 318.053C1337.14 316.805 1337.93 314.252 1337.54 311.812C1336.88 307.954 1333.49 306.025 1330.89 308.068C1329.84 308.862 1328.76 309.827 1327.63 311.075C1326.54 304.947 1324.63 298.99 1322.45 292.579C1321.5 289.799 1319.11 288.21 1316.89 289.175C1314.37 290.31 1313.15 293.941 1314.2 297.061C1318.59 309.94 1320.37 317.316 1319.5 326.904C1319.24 329.627 1318.72 332.748 1318.19 335.982C1318.11 336.549 1317.98 337.173 1317.89 337.741L1317.67 337.06C1316.54 333.485 1315.5 330.138 1314.46 327.018C1314.41 326.791 1314.37 326.564 1314.28 326.394C1313.93 325.259 1313.46 323.954 1312.89 322.479C1312.24 320.606 1311.59 318.791 1310.89 317.089C1310.85 316.521 1310.72 316.011 1310.54 315.5C1303.24 294.395 1306.85 285.09 1309.72 277.657C1310.72 275.104 1311.63 272.665 1312.07 269.998C1312.54 266.878 1311.11 263.701 1308.72 262.963C1306.2 262.225 1303.76 264.381 1303.33 267.615C1303.2 268.75 1302.5 270.509 1301.76 272.381C1301.03 274.367 1300.11 276.636 1299.37 279.36C1298.33 272.948 1298.07 266.764 1299.2 261.545C1302.24 247.134 1302.33 232.609 1299.46 219.617C1298.81 216.667 1296.55 214.624 1294.25 215.248C1291.64 215.929 1290.12 219.333 1290.86 222.624C1292.55 230.17 1293.03 238.68 1292.29 247.304C1290.59 243.559 1288.33 240.042 1285.25 236.921C1283.34 234.992 1280.6 235.106 1278.99 237.432C1277.21 239.985 1277.56 243.957 1279.64 245.942C1286.12 252.297 1287.42 260.977 1289.2 272.949C1290.16 279.246 1291.16 286.111 1293.12 293.543C1290.77 292.125 1288.16 290.877 1285.16 289.686C1282.9 288.835 1280.42 290.196 1279.56 293.033C1278.56 296.267 1279.95 299.841 1282.42 300.806C1292.68 304.777 1297.55 309.656 1301.76 319.302C1302.2 320.436 1302.63 321.571 1303.07 322.649C1303.81 324.578 1304.5 326.337 1305.07 327.869C1306.42 331.783 1307.85 336.265 1309.46 341.485L1310.37 344.435C1313.28 353.627 1315.89 361.456 1319.15 368.094C1319.19 368.151 1319.24 368.264 1319.28 368.321C1319.32 368.378 1319.37 368.435 1319.37 368.491C1319.98 369.683 1320.58 370.818 1321.19 371.896C1316.19 368.548 1310.94 364.463 1305.5 359.414C1295.46 346.251 1298.64 325.599 1298.68 325.429C1299.2 322.309 1297.68 319.188 1295.29 318.507C1292.9 317.826 1290.51 319.812 1289.99 322.933C1289.9 323.5 1288.81 330.251 1289.46 339.102C1283.94 328.89 1279.82 315.444 1277.08 295.756C1278.56 288.948 1280.29 279.303 1280.55 269.998C1280.9 259.048 1279.21 250.822 1275.51 245.432C1273.9 243.105 1271.12 242.595 1269.25 244.581C1267.21 246.737 1267.04 250.595 1268.78 253.091C1271.34 256.722 1272.21 264.268 1271.38 274.253C1267.39 264.949 1260.65 255.077 1249.48 248.949C1247.31 247.758 1244.7 248.779 1243.61 251.502C1242.39 254.566 1243.44 258.311 1245.87 259.616C1262.13 268.41 1266.78 286.452 1268.12 296.437C1273.47 336.606 1284.77 354.364 1300.03 368.605C1310.07 377.966 1319.54 384.321 1327.97 388.576C1315.63 385.909 1303.68 379.271 1292.29 368.718C1291.86 368.321 1291.42 367.924 1290.94 367.584C1278.82 357.087 1270.51 343.244 1265.65 333.315C1259.3 320.436 1257.08 310.961 1257 309.146C1256.95 307.557 1257.52 305.515 1258.17 303.075C1259.61 297.799 1261.6 290.593 1258.74 281.459C1257.82 278.565 1255.39 276.863 1253.09 277.884C1250.61 278.962 1249.39 282.594 1250.39 285.714C1251.3 288.494 1251.39 290.877 1251.13 293.26C1245 281.629 1237.35 274.934 1236.92 274.537C1234.87 272.778 1232.09 273.459 1230.75 276.126C1229.4 278.792 1229.92 282.423 1231.96 284.182C1232.09 284.296 1243.65 294.565 1248.13 310.734C1248.74 316.975 1252.78 328.833 1258.08 339.67C1261.26 346.137 1265.78 354.194 1271.78 362.024C1267.21 362.024 1263.69 362.648 1262.87 362.818C1260.43 363.328 1258.78 366.279 1259.13 369.456C1259.52 372.633 1261.78 374.789 1264.21 374.335C1268.3 373.541 1279.9 372.633 1286.25 377.569C1286.55 377.853 1286.86 378.08 1287.16 378.363C1307.68 397.37 1327.02 401.512 1339.62 401.568C1340.14 401.568 1340.66 401.568 1341.19 401.568C1351.05 401.398 1358.22 398.958 1361.22 397.71C1364.27 398.845 1371.48 401.058 1381.35 400.888C1381.87 400.888 1382.39 400.887 1382.91 400.831C1395.52 400.32 1414.77 395.554 1434.89 375.867C1435.2 375.583 1435.5 375.3 1435.81 375.073C1442.06 369.91 1453.67 370.42 1457.75 371.101C1460.19 371.498 1462.45 369.229 1462.75 366.052C1463.06 362.875 1461.32 359.924 1458.88 359.527C1458.06 359.414 1454.54 358.846 1449.97 359.017C1455.8 350.96 1460.15 342.79 1463.23 336.209C1468.32 325.202 1472.14 313.231 1472.62 306.99C1476.79 290.707 1488.14 280.04 1488.27 279.927C1490.53 278.111 1491 274.48 1489.61 271.814Z" fill="#004A5C"/>
<path d="M905.353 396.371C903.691 398.485 901.86 400.425 899.859 402.158V402.366L828.327 402.227C826.258 400.495 824.324 398.173 822.628 395.817C817.541 388.68 815.37 380.537 815.438 371.772C815.54 363.491 816.591 356.423 813.131 348.696C806.687 334.283 795.698 321.844 801.769 305.005C804.686 296.898 809.468 290.626 809.706 281.653C809.943 272.54 806.45 263.497 800.548 256.672C815.065 263.324 821.306 281.41 818.016 296.517C816.218 304.832 811.944 311.138 814.997 319.696C817.982 328.011 824.053 334.906 827.546 343.014C833.686 357.289 826.258 371.806 831.345 385.665C833.923 392.664 838.536 398.035 844.098 402.192H851.289C850.102 400.113 849.152 398.104 848.508 395.921C845.998 387.467 848.813 379.533 849.491 371.079C850.373 359.991 843.759 351.676 839.214 342.252C834.126 331.684 832.261 321.082 836.942 309.995C838.807 305.49 842.097 301.125 842.199 296.101C842.334 288.617 837.009 281.514 835.551 274.238C833.923 266.061 836.161 259.305 839.316 251.856C844.234 240.318 845.116 228.642 839.757 217C846.574 223.479 850.237 233.077 850.373 242.501C850.475 250.816 845.93 258.924 846.846 267.101C847.626 274.099 852.578 280.024 854.918 286.503C857.767 294.334 857.394 301.644 854.206 309.371C850.271 318.899 848.202 324.512 852.238 334.629C856.105 344.296 861.905 353.2 862.108 364.01C862.312 373.885 856.342 382.235 855.902 391.902C855.732 395.471 856.444 399.039 857.835 402.158H873.81C878.321 388.299 878.355 373.816 874.353 359.125C870.215 343.845 869.808 331.996 876.863 317.617C879.61 312.004 882.832 306.564 883.205 300.12C883.714 290.973 879.881 282.138 880.661 272.921C882.256 254.42 905.828 237.65 898.163 218.559C913.087 233.458 893.855 255.702 893.55 272.125C893.279 286.088 900.91 297.591 896.467 311.623C893.923 319.765 888.327 326.695 886.19 334.941C883.85 343.915 887.14 353.166 888.089 362.105C889.582 375.791 886.699 390.377 879.373 402.158H885.817C891.752 396.614 896.569 390.135 898.909 381.958C902.64 368.896 897.722 355.245 899.079 341.94C901.69 316.647 932.42 295.789 924.551 269.214C934.93 279.92 931.199 297.591 926.281 309.995C920.582 324.304 913.697 335.946 914.342 351.884C914.986 368.03 916.003 382.963 905.353 396.371Z" fill="#034A5D"/>
<path d="M233.353 396.371C231.691 398.485 229.86 400.425 227.859 402.158V402.366L156.327 402.227C154.258 400.495 152.324 398.173 150.628 395.817C145.541 388.68 143.37 380.537 143.438 371.772C143.54 363.491 144.591 356.423 141.131 348.696C134.687 334.283 123.698 321.844 129.769 305.005C132.686 296.898 137.468 290.626 137.706 281.653C137.943 272.54 134.45 263.497 128.548 256.672C143.065 263.324 149.306 281.41 146.016 296.517C144.218 304.832 139.944 311.138 142.997 319.696C145.982 328.011 152.053 334.906 155.546 343.014C161.686 357.289 154.258 371.806 159.345 385.665C161.923 392.664 166.536 398.035 172.098 402.192H179.289C178.102 400.113 177.152 398.104 176.508 395.921C173.998 387.467 176.813 379.533 177.491 371.079C178.373 359.991 171.759 351.676 167.214 342.252C162.126 331.684 160.261 321.082 164.942 309.995C166.807 305.49 170.097 301.125 170.199 296.101C170.334 288.617 165.009 281.514 163.551 274.238C161.923 266.061 164.161 259.305 167.316 251.856C172.234 240.318 173.116 228.642 167.757 217C174.574 223.479 178.237 233.077 178.373 242.501C178.475 250.816 173.93 258.924 174.846 267.101C175.626 274.099 180.578 280.024 182.918 286.503C185.767 294.334 185.394 301.644 182.206 309.371C178.271 318.899 176.202 324.512 180.238 334.629C184.105 344.296 189.905 353.2 190.108 364.01C190.312 373.885 184.342 382.235 183.902 391.902C183.732 395.471 184.444 399.039 185.835 402.158H201.81C206.321 388.299 206.355 373.816 202.353 359.125C198.215 343.845 197.808 331.996 204.863 317.617C207.61 312.004 210.832 306.564 211.205 300.12C211.714 290.973 207.881 282.138 208.661 272.921C210.256 254.42 233.828 237.65 226.163 218.559C241.087 233.458 221.855 255.702 221.55 272.125C221.279 286.088 228.91 297.591 224.467 311.623C221.923 319.765 216.327 326.695 214.19 334.941C211.85 343.915 215.14 353.166 216.089 362.105C217.582 375.791 214.699 390.377 207.373 402.158H213.817C219.752 396.614 224.569 390.135 226.909 381.958C230.64 368.896 225.722 355.245 227.079 341.94C229.69 316.647 260.42 295.789 252.551 269.214C262.93 279.92 259.199 297.591 254.281 309.995C248.582 324.304 241.697 335.946 242.342 351.884C242.986 368.03 244.003 382.963 233.353 396.371Z" fill="#034A5D"/>
</svg>
