<svg width="75" height="146" viewBox="0 0 75 146" fill="none" xmlns="http://www.w3.org/2000/svg">
<path d="M40.7227 0.242279C40.1016 3.23621 39.9344 6.30197 40.1494 9.2959C40.3644 12.3138 40.9616 15.2598 41.7976 18.1579C43.4936 23.9302 46.0735 29.3672 48.9399 34.6844C51.8303 40.0016 54.9835 45.271 57.7066 50.9474C60.4298 56.6 62.7707 62.7076 63.6784 69.3661C64.1323 72.6953 64.1801 76.1204 63.8457 79.4736C63.5113 82.8268 62.8424 86.1081 61.9585 89.2697C60.1909 95.6169 57.6588 101.461 55.2462 107.114C52.8336 112.742 50.4687 118.203 48.9161 123.52C47.3395 128.837 46.6706 133.963 47.2678 138.682L31.5738 139.568C31.5261 135.831 31.9799 132.167 32.7682 128.694C33.5565 125.221 34.6792 121.939 35.9691 118.85C38.549 112.67 41.7021 107.161 44.6641 101.868C47.65 96.551 50.5165 91.4254 52.6186 86.156C54.7207 80.8867 55.9867 75.5216 55.8195 70.0128C55.7001 64.48 54.2429 58.8035 52.2364 53.2228C50.2538 47.6182 47.6978 42.0854 45.333 36.361C42.992 30.6366 40.9138 24.7206 39.815 18.5891C39.2656 15.5233 38.9789 12.4096 39.0984 9.31985C39.2895 6.23011 39.7672 3.1404 40.7227 0.242279Z" fill="#004A5C"/>
<path d="M9.57348 16.0262C14.4704 19.1399 19.4389 22.2775 23.7387 26.4211C25.8885 28.4809 27.8473 30.8042 29.4477 33.415C31.0482 36.0017 32.3142 38.8998 32.9592 42.0375C33.6042 45.1512 33.6041 48.3846 33.1503 51.4983C32.7203 54.612 31.8843 57.6059 30.881 60.4801C28.8506 66.2524 26.1991 71.4977 24.5031 76.6712C23.6192 79.258 23.0459 81.7968 22.7593 84.3357C22.4726 86.8985 22.4965 89.4853 22.7593 92.072C23.2848 97.2455 24.8375 102.347 27.0112 107.161C29.185 111.976 32.0515 116.598 35.2763 121.101C38.5011 125.604 42.0842 129.987 45.7628 134.49L33.0547 143.759C29.9016 138.849 26.6529 133.819 23.667 128.454C20.6811 123.113 17.9818 117.437 15.9992 111.377C14.0643 105.317 12.8699 98.9461 12.9416 92.4792C12.9894 89.2457 13.3238 85.9884 14.0643 82.8028C14.7809 79.6173 15.9036 76.5275 17.2174 73.7492C19.8212 68.1206 23.046 63.2345 25.4347 58.2286C26.6529 55.7137 27.6562 53.1749 28.3251 50.5642C29.0178 47.9535 29.3044 45.2949 29.0656 42.6363C28.8267 40.0016 28.0384 37.343 26.844 34.852C25.6497 32.3371 24.097 29.9659 22.2815 27.7864C18.6507 23.3553 14.1121 19.6668 9.57348 16.0262Z" fill="#004A5C"/>
<path d="M2.40751 48.5284C11.007 49.8936 19.3197 54.5881 25.1244 61.7496C28.0625 65.3423 30.2124 69.5098 31.8606 73.8211C33.461 78.1323 34.5599 82.5873 35.4437 86.9704C36.3514 91.3535 37.0442 95.6648 37.9041 99.8802C38.7402 104.12 39.624 108.335 40.5795 112.527C42.4905 120.934 44.6881 129.245 47.1007 137.46L31.7412 140.765C30.5229 131.951 29.5674 123.113 28.9225 114.275C28.588 109.868 28.3253 105.437 28.1342 101.03C27.9192 96.5989 27.8714 92.2158 27.6325 87.9764C27.4176 83.713 27.0115 79.5455 26.1754 75.4977C25.3155 71.4738 23.9778 67.5458 21.8757 64.001C17.7193 56.9113 10.7203 51.187 2.40751 48.5284Z" fill="#004A5C"/>
<path d="M74.0217 93.054C74.0217 92.0001 73.95 90.9462 73.9261 89.9163C73.735 85.7487 73.3528 81.6291 72.8751 77.5334C71.9434 69.366 70.7013 61.3183 70.0325 53.1748C69.3875 61.3183 69.3158 69.5576 68.9336 77.6532C68.7425 81.701 68.4798 85.7488 68.026 89.7008C67.9065 90.6828 67.7871 91.6887 67.6437 92.6707L67.4288 94.1318C67.3571 94.6108 67.2376 95.0659 67.1421 95.521C66.8077 97.3652 66.2822 99.1616 65.685 100.91C64.4667 104.407 62.723 107.664 60.597 110.682C58.471 113.7 55.9628 116.455 53.2397 119.041C50.5165 121.628 47.5545 124.023 44.4253 126.299C42.6815 127.568 40.9138 128.789 39.0984 129.987C29.9495 124.574 21.6128 117.413 14.9483 108.67C11.0785 103.593 7.75818 97.964 5.27389 91.9282C2.76572 85.8925 1.06972 79.4256 0.376987 72.7431C-0.244084 79.4256 0.161984 86.3236 1.52356 93.0779C2.88514 99.8322 5.17834 106.491 8.28369 112.79C13.945 124.335 22.2339 134.753 32.2905 143.352V145.723H47.1484V142.777C49.2983 140.813 51.4243 138.801 53.5025 136.717C56.5361 133.676 59.4504 130.418 62.1258 126.921C64.8012 123.424 67.2138 119.664 69.1725 115.64C71.1313 111.616 72.6123 107.305 73.3767 102.898C73.735 100.694 74.0217 98.4909 74.0456 96.2634C74.0695 95.7125 74.0933 95.1616 74.0933 94.6347L74.0217 93.054Z" fill="#004A5C"/>
</svg>
