<svg width="142" height="105" viewBox="0 0 142 105" fill="none" xmlns="http://www.w3.org/2000/svg">
<path d="M141.143 34.5566C140.367 33.1434 138.86 32.7748 137.778 33.7886C137.542 34.0036 133.494 37.7823 130.294 44.1724C130.105 42.9435 130.129 41.684 130.576 40.2094C131.023 38.704 130.623 36.9222 129.517 36.1541C128.223 35.2325 126.646 36.0312 126.128 37.7516C124.575 42.8514 125.751 46.7838 126.599 49.6409C126.975 50.9312 127.305 52.0372 127.305 52.8974C127.281 53.8805 126.175 59.0417 122.88 66.1384C120.338 71.6068 116.008 79.2565 109.536 85.1551C109.301 85.3701 109.065 85.5851 108.83 85.8002C102.781 91.7295 96.38 95.539 89.7432 97.1979C94.2854 94.7095 99.3454 91.1151 104.664 85.8617C112.784 77.8741 118.715 68.0431 121.162 46.2001C121.774 40.7931 124.08 30.9929 132.718 25.8931C133.847 25.2172 134.506 23.5582 134.13 21.9914C133.683 20.1789 132.153 19.3187 130.859 20.0867C124.81 23.6197 121.256 29.0881 119.162 34.2186C118.62 28.8731 118.973 24.7871 120.315 22.7595C120.927 21.8378 121.186 20.5782 120.809 19.503C120.009 17.1374 117.844 16.8917 116.714 18.5506C114.69 21.5306 113.843 26.1081 114.149 32.0988C114.408 37.1372 115.42 42.2984 116.314 45.985C115.043 56.7069 112.949 64.0493 110.077 69.6713C110.336 64.8788 109.677 61.2229 109.607 60.9157C109.301 59.226 107.983 58.2122 106.688 58.6116C105.394 59.0109 104.594 60.7314 104.9 62.4211C104.923 62.544 106.877 73.6652 101.581 80.9769C98.6864 83.8033 95.8858 86.1382 93.2264 88.0122C93.5558 87.3978 93.8853 86.7833 94.1913 86.1382C94.2148 86.1074 94.2383 86.0767 94.2383 86.046C94.2619 85.9845 94.2854 85.9538 94.309 85.8924C96.027 82.2365 97.3449 77.9662 98.8041 72.9279L99.2748 71.2996C100.099 68.4732 100.828 66.0155 101.511 63.865C101.793 63.0355 102.146 62.0524 102.523 61.0079C102.734 60.4242 102.946 59.8097 103.182 59.1646C105.37 53.9112 107.912 51.177 113.372 48.8422C114.572 48.3199 115.349 46.7531 115.09 45.1556C114.784 43.3123 113.325 42.237 111.984 42.8207C110.336 43.5273 108.901 44.2646 107.606 45.0941C108.595 41.0388 109.065 37.2908 109.512 33.8807C110.36 27.3984 110.948 22.698 114.337 19.1343C115.208 18.2127 115.584 16.6152 115.09 15.2941C114.384 13.3587 112.572 12.8978 111.395 14.1267C109.677 15.9086 108.453 17.8747 107.559 19.9945C107.065 15.3863 107.23 10.8088 108.053 6.69209C108.359 5.12529 107.771 3.40488 106.618 2.85189C105.253 2.17601 103.793 3.18983 103.417 4.97169C101.958 12.0991 102.146 19.9945 103.958 27.8285C104.617 30.6242 104.547 33.9729 104.052 37.4752C103.605 36.0312 103.111 34.8024 102.664 33.7578C102.24 32.744 101.864 31.7916 101.769 31.2079C101.605 30.1019 101.04 29.1189 100.216 28.8116C98.2393 28.0743 96.686 30.2248 97.039 32.4368C97.2743 33.9421 97.8392 35.2939 98.404 36.7378C100.051 40.7316 102.075 45.6778 98.3569 57.2291C98.2628 57.5056 98.2157 57.8128 98.1922 58.0893C97.8392 59.0417 97.5097 60.0248 97.1567 61.0386C96.8742 61.8374 96.6389 62.5747 96.4506 63.1891C96.4271 63.312 96.38 63.4349 96.3565 63.527C95.8387 65.2167 95.2974 67.0601 94.7326 69.0262L94.6149 69.4256C94.5443 69.1184 94.4972 68.7804 94.4266 68.4732C94.0971 66.7221 93.7912 65.0324 93.6029 63.5885C93.0145 58.458 93.9089 54.4335 96.0976 47.4597C96.5683 45.9543 96.1682 44.111 95.0385 43.3429C93.7676 42.452 92.2143 43.2201 91.673 44.9098C90.5434 48.4735 89.5784 51.7914 89.0371 55.1708C86.6366 52.6823 84.4008 52.0986 84.236 52.0372C82.9181 51.6992 81.6707 52.836 81.4119 54.5257C81.153 56.2461 82.0238 57.8743 83.3182 58.2122C83.3652 58.2122 86.919 59.2875 88.8724 64.9402C89.0842 66.5685 89.3902 68.2274 89.7197 69.9786C90.614 74.7097 91.5319 79.5637 90.0492 82.6973C89.9786 82.851 89.9079 83.0352 89.8609 83.1888C87.6015 87.7664 84.4479 91.0536 78.5406 93.6649C80.5882 89.3332 81.8355 84.4485 82.2356 79.1029C82.871 70.4394 81.0588 63.1277 80.2351 60.3934C80.0939 59.9326 79.9527 59.5025 79.8115 59.0417C78.2582 53.5118 80.0233 50.1324 82.6357 45.1862C83.3653 43.8038 84.1184 42.3292 84.8244 40.7624C90.8729 28.5352 97.7921 22.7595 97.8627 22.7288C98.9924 21.8071 99.3454 19.8717 98.6394 18.397C97.9333 16.9224 96.4506 16.4615 95.3209 17.3832C95.1091 17.5675 91.9555 20.1789 87.9781 25.5244C88.9901 14.1574 94.6384 8.81186 94.8973 8.59681C96.0035 7.61372 96.2859 5.64756 95.5092 4.20365C94.7561 2.75973 93.2499 2.39104 92.1437 3.40485C91.8848 3.61991 87.6957 7.49086 85.0598 15.417C84.3302 13.5737 83.7654 12.0377 83.6948 10.0408C83.6242 8.28962 82.4945 6.96857 81.153 7.06073C79.8115 7.1529 78.7995 8.62755 78.8701 10.3787C79.0113 13.8502 79.9762 16.3387 80.9176 18.7349C81.9532 21.3156 82.9181 23.7733 82.9652 27.9821C82.871 31.6995 81.9532 34.6795 80.7058 37.4444C80.3763 38.0896 80.0704 38.7654 79.7409 39.4413C79.3643 40.1786 78.9878 40.8853 78.6112 41.6226C77.6463 43.4966 76.6108 45.432 75.8341 47.5518C74.375 42.4213 73.2453 35.9391 73.3394 26.1696C73.41 17.4447 77.0579 9.14981 80.4234 6.41559C81.3648 5.64755 81.8826 4.17289 81.5531 2.79042C81.0588 0.732075 79.2937 -0.0359426 77.9758 1.00859C74.8221 3.52776 72.1156 8.35103 70.3976 14.0038C69.974 13.1743 69.5503 12.437 69.1502 11.7304C67.644 9.08838 66.9144 7.73662 67.2204 5.49394C67.3851 4.20363 66.985 2.88261 66.1142 2.23746C64.5374 1.07004 62.7487 2.2989 62.4663 4.38797C61.7838 9.42631 63.6431 12.6828 65.2905 15.5092C66.9144 18.3663 68.4677 21.0391 68.5148 26.2003C68.3736 42.5442 71.4566 50.9005 73.9513 57.6285C74.4456 58.9802 74.9163 60.2399 75.3399 61.4994C75.4576 61.8988 75.5752 62.3289 75.74 62.759C76.7284 66.0769 80.7529 82.0215 72.0215 94.5252C67.0321 84.0184 67.2674 72.4671 67.5263 61.2844C67.5734 58.8881 67.644 56.4304 67.6205 54.0341V54.0033C67.5969 50.6854 67.5734 47.6132 67.5734 44.879C67.5263 29.9483 67.5028 22.3601 63.8314 16.4923C63.0076 15.1713 61.5249 14.7719 60.4659 15.755C59.3127 16.8302 59.1244 18.95 60.0187 20.3632C61.878 23.251 62.4663 27.4599 62.6546 34.3415C60.4188 30.1941 57.4299 26.3232 53.7349 22.8209C49.3574 18.6428 46.9804 14.864 45.333 4.81808C45.0741 3.22056 43.9444 2.02241 42.6971 2.20674C41.2615 2.42179 40.2965 4.1729 40.5789 5.98548C42.5088 17.9669 45.8272 23.0974 50.8872 27.9207C56.3238 33.0819 62.7958 41.8376 62.8194 54.0341V54.0648C62.8194 56.3689 62.7723 58.6731 62.7252 61.1308C62.6311 65.1553 62.5369 69.3642 62.7017 73.6345C60.6071 70.7466 58.9596 69.3334 58.8184 69.2105C57.6888 68.2581 56.2061 68.6883 55.4765 70.1322C54.7469 71.6068 55.0764 73.5423 56.1825 74.4947C56.2296 74.5561 61.8309 79.4101 65.0552 90.2241V90.2548C65.4788 91.7602 65.973 93.2348 66.5379 94.7095C59.3597 92.1903 55.7589 88.8416 53.1465 83.8955C53.0995 83.7111 53.0289 83.5576 52.9347 83.404C51.405 80.3318 52.2287 75.4163 53.0289 70.6852C53.3348 68.934 53.5937 67.2444 53.782 65.6161C54.841 62.3289 56.4885 60.5471 57.6888 59.5947C58.5831 58.9188 59.0067 57.5364 58.7949 56.2153C58.4419 54.1263 56.6062 53.0817 55.1941 54.1877C54.6292 54.6178 54.0409 55.1401 53.429 55.8159C52.8406 52.498 51.8051 49.2722 50.6283 45.8007C50.1106 44.2953 48.8161 43.4351 47.6159 43.9574C46.2508 44.5718 45.5919 46.538 46.1567 48.2277C48.5337 55.2015 49.4986 59.1953 49.028 64.3872C48.8867 65.8619 48.6043 67.5516 48.3219 69.3027C48.2748 69.6099 48.2042 69.9479 48.1572 70.2551L48.0395 69.8865C47.4276 67.951 46.8628 66.1384 46.2979 64.4487C46.2744 64.3258 46.2508 64.2029 46.2038 64.1108C46.0155 63.4963 45.7566 62.7897 45.4507 61.9909C45.0976 60.9771 44.7446 59.994 44.368 59.0724C44.3445 58.7652 44.2739 58.4887 44.1798 58.2122C40.2259 46.7838 42.1793 41.7454 43.7326 37.7209C44.2739 36.3384 44.7682 35.0174 45.0035 33.5735C45.2624 31.8838 44.4857 30.1634 43.1913 29.764C41.8263 29.3646 40.5084 30.532 40.273 32.2832C40.2024 32.8976 39.8258 33.85 39.4257 34.8638C39.0256 35.9391 38.5314 37.1679 38.1313 38.6425C37.5665 35.171 37.4253 31.8224 38.0372 28.996C39.6846 21.1927 39.7317 13.3279 38.1784 6.29269C37.8254 4.69517 36.6016 3.58921 35.3542 3.92714C33.9421 4.2958 33.1184 6.1391 33.5185 7.92095C34.4364 12.0069 34.6953 16.6152 34.2952 21.2849C33.3773 19.2572 32.1535 17.3525 30.4825 15.6628C29.447 14.6182 27.9643 14.6797 27.0935 15.9393C26.1286 17.3218 26.3169 19.4723 27.4465 20.5475C30.9532 23.9883 31.6593 28.6888 32.6242 35.171C33.142 38.5811 33.6833 42.2984 34.7423 46.3229C33.4714 45.5549 32.0593 44.8791 30.4354 44.2339C29.2116 43.7731 27.8701 44.5104 27.3994 46.0465C26.8581 47.7976 27.6113 49.733 28.9527 50.2553C34.507 52.4058 37.1429 55.0479 39.4257 60.2706C39.6611 60.885 39.8964 61.4994 40.1318 62.0831C40.5319 63.1277 40.9084 64.08 41.2144 64.9095C41.944 67.0293 42.7206 69.4563 43.5914 72.2827L44.0856 73.8803C45.6625 78.8572 47.0745 83.0967 48.8397 86.6912C48.8632 86.7219 48.8867 86.7833 48.9103 86.814C48.9338 86.8447 48.9573 86.8755 48.9573 86.9062C49.2868 87.5513 49.6163 88.1658 49.9458 88.7495C47.2393 86.9369 44.3916 84.725 41.4498 81.9907C36.0132 74.8633 37.7312 63.6807 37.7548 63.5885C38.0372 61.8988 37.2135 60.2091 35.9191 59.8404C34.6247 59.4718 33.3302 60.547 33.0478 62.2367C33.0007 62.5439 32.4124 66.1998 32.7654 70.9924C29.7765 65.4625 27.5407 58.1815 26.058 47.5211C26.8582 43.8345 27.7996 38.6118 27.9408 33.5735C28.129 27.6442 27.2112 23.1896 25.2107 20.271C24.3399 19.0114 22.8337 18.7349 21.8217 19.8102C20.7156 20.9776 20.6214 23.0667 21.5628 24.4184C22.9514 26.3846 23.4221 30.4706 22.9749 35.8776C20.8097 30.8392 17.1618 25.4937 11.1134 22.1758C9.93662 21.5306 8.52453 22.0836 7.93616 23.5583C7.27719 25.2172 7.84201 27.2448 9.15996 27.9514C17.962 32.7133 20.4802 42.4828 21.2098 47.8898C24.1046 69.6407 30.2236 79.2565 38.4843 86.9676C43.9209 92.0367 49.0515 95.4775 53.6172 97.7816C46.9334 96.3377 40.4613 92.7433 34.2952 87.029C34.0598 86.814 33.8245 86.5989 33.5656 86.4146C26.9994 80.7311 22.5042 73.2351 19.8683 67.8588C16.4322 60.885 15.232 55.7545 15.1849 54.7714C15.1613 53.9112 15.4673 52.8052 15.8203 51.4842C16.597 48.6271 17.6796 44.7255 16.1263 39.7793C15.632 38.2125 14.3141 37.2908 13.0668 37.8438C11.7253 38.4275 11.0663 40.3937 11.6076 42.0834C12.1018 43.5888 12.1489 44.879 12.0077 46.1693C8.68927 39.8714 4.54714 36.2462 4.31179 36.0312C3.20566 35.0788 1.69943 35.4475 0.969848 36.8914C0.240268 38.3353 0.522683 40.3015 1.62882 41.2539C1.69942 41.3153 7.95969 46.8759 10.3838 55.6316C10.7133 59.011 12.902 65.4318 15.7733 71.2996C17.4913 74.8019 19.9389 79.1644 23.1867 83.404C20.7156 83.404 18.8092 83.7419 18.3621 83.834C17.0441 84.1105 16.1498 85.708 16.3381 87.4284C16.5499 89.1489 17.7737 90.3163 19.0917 90.0705C21.3039 89.6404 27.5877 89.1489 31.0238 91.8216C31.1886 91.9753 31.3533 92.0981 31.518 92.2517C42.6265 102.543 53.0995 104.786 59.9246 104.817C60.207 104.817 60.4894 104.817 60.7718 104.817C66.1142 104.725 69.9975 103.404 71.6214 102.728C73.2688 103.342 77.1756 104.54 82.518 104.448C82.8004 104.448 83.0828 104.448 83.3653 104.418C90.1904 104.141 100.616 101.56 111.513 90.9C111.678 90.7464 111.842 90.5928 112.007 90.4699C115.396 87.6743 121.68 87.9508 123.892 88.3194C125.21 88.5345 126.434 87.3056 126.599 85.5851C126.763 83.8647 125.822 82.2672 124.504 82.0522C124.057 81.9907 122.151 81.6835 119.679 81.7757C122.833 77.4132 125.187 72.9893 126.858 69.4256C129.611 63.4656 131.682 56.9834 131.941 53.604C134.2 44.7869 140.343 39.0112 140.414 38.9497C141.637 37.9666 141.896 36.0005 141.143 34.5566Z" fill="#004A5C"/>
</svg>
